<?xml version="1.0" encoding="UTF-8" standalone="no"?>
<svg
   xmlns:dc="http://purl.org/dc/elements/1.1/"
   xmlns:cc="http://creativecommons.org/ns#"
   xmlns:rdf="http://www.w3.org/1999/02/22-rdf-syntax-ns#"
   xmlns:svg="http://www.w3.org/2000/svg"
   xmlns="http://www.w3.org/2000/svg"
   xmlns:xlink="http://www.w3.org/1999/xlink"
   xmlns:sodipodi="http://sodipodi.sourceforge.net/DTD/sodipodi-0.dtd"
   xmlns:inkscape="http://www.inkscape.org/namespaces/inkscape"
   version="1.1"
   id="Capa_1"
   x="0px"
   y="0px"
   width="97px"
   height="97px"
   viewBox="0 0 97 97"
   style="enable-background:new 0 0 97 97;"
   xml:space="preserve"
   inkscape:version="0.48.5 r10040"
   sodipodi:docname="appointment.svg"><metadata
     id="metadata59"><rdf:RDF><cc:Work
         rdf:about=""><dc:format>image/svg+xml</dc:format><dc:type
           rdf:resource="http://purl.org/dc/dcmitype/StillImage" /></cc:Work></rdf:RDF></metadata><defs
     id="defs57"><linearGradient
       y2="14.7232"
       x2="82.190399"
       y1="82.137703"
       x1="14.7759"
       gradientUnits="userSpaceOnUse"
       id="SVGID_1_-7"><stop
         id="stop3040"
         style="stop-color:#3B6872"
         offset="0.1452" /><stop
         id="stop3042"
         style="stop-color:#66A5AD"
         offset="0.6684" /></linearGradient><linearGradient
       inkscape:collect="always"
       xlink:href="#SVGID_1_-7"
       id="linearGradient3138"
       gradientUnits="userSpaceOnUse"
       x1="14.7759"
       y1="82.137703"
       x2="82.190399"
       y2="14.7232"
       gradientTransform="matrix(0.24092826,0,0,0.24092814,141.62395,54.09413)" /></defs><sodipodi:namedview
     pagecolor="#ffffff"
     bordercolor="#666666"
     borderopacity="1"
     objecttolerance="10"
     gridtolerance="10"
     guidetolerance="10"
     inkscape:pageopacity="0"
     inkscape:pageshadow="2"
     inkscape:window-width="1495"
     inkscape:window-height="807"
     id="namedview55"
     showgrid="false"
     showguides="true"
     inkscape:guide-bbox="true"
     inkscape:zoom="0.30412371"
     inkscape:cx="-12.209502"
     inkscape:cy="-197.23846"
     inkscape:window-x="1356"
     inkscape:window-y="96"
     inkscape:window-maximized="0"
     inkscape:current-layer="Capa_1" /><linearGradient
     id="SVGID_1_"
     gradientUnits="userSpaceOnUse"
     x1="14.6357"
     y1="83.8486"
     x2="78.5009"
     y2="17.7143"><stop
       offset="0"
       style="stop-color:#0A8991"
       id="stop4" /><stop
       offset="0.0102"
       style="stop-color:#1B8B93"
       id="stop6" /><stop
       offset="0.1537"
       style="stop-color:#6FA6AD"
       id="stop8" /><stop
       offset="0.2988"
       style="stop-color:#A0C0C6"
       id="stop10" /><stop
       offset="0.4429"
       style="stop-color:#C4D6DA"
       id="stop12" /><stop
       offset="0.5858"
       style="stop-color:#DEE8EB"
       id="stop14" /><stop
       offset="0.727"
       style="stop-color:#F1F5F6"
       id="stop16" /><stop
       offset="0.866"
       style="stop-color:#FCFDFD"
       id="stop18" /><stop
       offset="1"
       style="stop-color:#FFFFFF"
       id="stop20" /></linearGradient><circle
     style="fill-rule:evenodd;clip-rule:evenodd;fill:url(#SVGID_1_);stroke:#08828B;stroke-width:2.0001;stroke-linecap:round;stroke-linejoin:round;stroke-miterlimit:22.9256;"
     cx="48.563"
     cy="48.715"
     r="47.245"
     id="circle22" /><linearGradient
     id="SVGID_2_"
     gradientUnits="userSpaceOnUse"
     x1="42.7446"
     y1="-34.48"
     x2="53.9945"
     y2="126.4003"><stop
       offset="0"
       style="stop-color:#0A8991"
       id="stop25" /><stop
       offset="0.015"
       style="stop-color:#38929A"
       id="stop27" /><stop
       offset="0.0528"
       style="stop-color:#6EA6AD"
       id="stop29" /><stop
       offset="0.0958"
       style="stop-color:#96BAC0"
       id="stop31" /><stop
       offset="0.1431"
       style="stop-color:#B5CCD1"
       id="stop33" /><stop
       offset="0.1959"
       style="stop-color:#CDDCDF"
       id="stop35" /><stop
       offset="0.2564"
       style="stop-color:#E0E9EC"
       id="stop37" /><stop
       offset="0.3283"
       style="stop-color:#EEF3F5"
       id="stop39" /><stop
       offset="0.4195"
       style="stop-color:#F8FAFB"
       id="stop41" /><stop
       offset="0.553"
       style="stop-color:#FEFEFE"
       id="stop43" /><stop
       offset="1"
       style="stop-color:#FFFFFF"
       id="stop45" /></linearGradient><circle
     style="fill-rule:evenodd;clip-rule:evenodd;fill:url(#SVGID_2_);"
     cx="48.563"
     cy="48.715"
     r="38.293"
     id="circle47" /><line
     style="fill-rule:evenodd;clip-rule:evenodd;fill:none;stroke:#08828B;stroke-width:10.0001;stroke-miterlimit:22.9256;"
     x1="63.743"
     y1="63.842"
     x2="39.594"
     y2="39.691"
     id="line49" /><line
     style="fill-rule:evenodd;clip-rule:evenodd;fill:none;stroke:#08828B;stroke-width:10.0001;stroke-miterlimit:22.9256;"
     x1="71.622"
     y1="24.404"
     x2="40.238"
     y2="55.789"
     id="line51" /><circle
     style="fill-rule:evenodd;clip-rule:evenodd;fill:#FFFFFF;stroke:#08828B;stroke-width:2.0001;stroke-linecap:round;stroke-linejoin:round;stroke-miterlimit:22.9256;"
     cx="47.702"
     cy="48.017"
     r="5.968"
     id="circle53" /><g
     id="g3918"
     transform="matrix(1.5172211,0,0,1.5172211,-153.51776,-20.521715)"><path
       d="m 165.07469,65.762711 c 0,6.497828 -5.26753,11.765359 -11.76536,11.765359 -6.49783,0 -11.76536,-5.267531 -11.76536,-11.765359 0,-6.497829 5.26753,-11.76536 11.76536,-11.76536 6.49783,0 11.76536,5.267531 11.76536,11.76536 z"
       sodipodi:ry="11.76536"
       sodipodi:rx="11.76536"
       sodipodi:cy="65.762711"
       sodipodi:cx="153.30933"
       id="path3916"
       style="color:#000000;fill:#ffffff;fill-opacity:1;stroke:none;stroke-width:0.55000001;marker:none;visibility:visible;display:inline;overflow:visible;enable-background:accumulate"
       sodipodi:type="arc" /><path
       inkscape:connector-curvature="0"
       style="fill:url(#linearGradient3138);stroke:#498089;stroke-width:0.36250481;stroke-linecap:round;stroke-linejoin:round;stroke-miterlimit:22.92560005;stroke-dasharray:none"
       d="m 147.08748,56.102989 c 2.51818,-1.602173 5.66712,-2.209312 8.59078,-1.57037 2.87331,0.571 5.45919,2.336039 7.10907,4.74508 1.64361,2.385188 2.32496,5.413414 1.8578,8.273472 -0.60112,4.072891 -3.6079,7.74825 -7.55455,8.993848 0.97455,-0.912395 2.43964,-1.595908 2.67334,-3.040754 0.24816,-0.165759 0.49679,-0.333445 0.7476,-0.498722 0.21226,-0.747117 1.34486,-1.502909 1.49737,-2.264001 -0.29899,-0.159735 -0.59846,-0.318748 -0.89818,-0.477761 -0.0342,-0.292727 -0.0704,-0.5816 -0.1036,-0.87216 -0.39705,-0.333444 -1.2138,-1.249935 -1.68336,-1.480985 -0.69219,-0.09926 -1.39088,-0.122632 -2.08693,-0.174191 -0.13588,0.2337 -0.27176,0.469087 -0.40813,0.703028 -0.59847,-0.125523 -0.64111,-0.751695 -0.82156,-1.224396 -0.19082,-0.01518 -0.57558,-0.04264 -0.76688,-0.05951 0.11083,-0.329108 0.21877,-0.657975 0.32502,-0.990937 -0.51993,-0.08047 -0.91505,0.254661 -1.3162,0.526187 -0.16118,-0.23346 -0.32284,-0.466678 -0.4821,-0.700137 0.14432,-0.403073 0.28912,-0.804219 0.4397,-1.202954 0.5963,-0.07228 1.18947,-0.148653 1.78335,-0.218763 0.17636,0.365006 0.29538,0.79169 0.65822,1.020571 -0.0535,-1.013825 0.0988,-1.341488 0.72928,-2.06114 0.76809,-0.543052 1.67904,-0.838189 2.55409,-1.160551 -0.33561,-0.897698 -0.69219,-1.786723 -1.10442,-2.654787 -0.69604,0.273694 -0.76808,-0.626172 -1.05936,-1.037919 -0.31417,-0.03397 -0.62617,-0.06987 -0.93866,-0.09974 -0.019,0.623522 -0.0528,1.248008 -0.0908,1.871771 -0.14238,-0.0106 -0.42668,-0.03204 -0.571,-0.0424 -0.54979,-0.581359 -1.13645,-1.128989 -1.73492,-1.661681 0.0701,-0.176119 0.20816,-0.524019 0.28044,-0.700137 0.56691,-0.06385 1.13646,-0.10384 1.70698,-0.161181 -0.0783,-0.396809 -0.15661,-0.791931 -0.23587,-1.186089 -1.95104,-0.119019 -3.95556,0.403073 -5.82203,-0.377776 -0.36525,0.161181 -0.72833,0.328626 -1.0849,0.506913 -0.75194,-0.170095 -1.48677,-0.401627 -2.18956,-0.721821 l 0,0 z m -4.43982,13.942271 c -1.83877,-4.458617 -0.51583,-10.07152 3.31444,-13.067943 0.0448,0.101671 0.14047,0.305738 0.18697,0.406928 -0.26334,0.157326 -0.45873,0.37151 -0.58185,0.647614 l 0.64376,-0.06794 c -0.15973,0.203584 -0.4804,0.613403 -0.63942,0.819156 0.12312,0.362837 0.25057,0.728084 0.41006,1.078153 0.49872,-0.411506 0.88734,-0.937933 1.41184,-1.324141 0.45029,0.182382 0.90468,0.360669 1.35691,0.543293 0.35223,0.604729 -0.014,1.203436 0.3385,1.809852 -0.0253,0.691946 -0.60666,1.38365 -0.55149,2.073428 0.63919,1.381481 1.65181,2.715983 2.56493,3.938452 0.83434,0.39464 2.75044,0.538956 3.52936,1.054543 0.3691,0.344527 0.64762,0.770487 0.95817,1.167537 0.16961,-0.01928 0.50522,-0.0571 0.67508,-0.07445 -0.24237,0.395123 -0.47993,0.795786 -0.7199,1.192595 0.16359,0.704474 0.32694,1.415212 0.47151,2.124022 0.35849,0.286463 0.72422,0.568832 1.08923,0.84879 -0.41223,1.283906 -0.82398,2.599856 -1.5523,3.741373 -5.21947,1.290411 -11.00343,-1.918029 -12.9058,-6.911264 l 0,0 z"
       id="path3044" /></g></svg>