<?xml version="1.0" encoding="UTF-8" standalone="no"?>
<svg
   xmlns:i="http://ns.adobe.com/AdobeIllustrator/10.0/"
   xmlns:dc="http://purl.org/dc/elements/1.1/"
   xmlns:cc="http://creativecommons.org/ns#"
   xmlns:rdf="http://www.w3.org/1999/02/22-rdf-syntax-ns#"
   xmlns:svg="http://www.w3.org/2000/svg"
   xmlns="http://www.w3.org/2000/svg"
   xmlns:xlink="http://www.w3.org/1999/xlink"
   xmlns:sodipodi="http://sodipodi.sourceforge.net/DTD/sodipodi-0.dtd"
   xmlns:inkscape="http://www.inkscape.org/namespaces/inkscape"
   version="1.1"
   id="Capa_1"
   x="0px"
   y="0px"
   width="97px"
   height="97px"
   viewBox="0 0 97 97"
   style="enable-background:new 0 0 97 97;"
   xml:space="preserve"
   inkscape:version="0.48.3.1 r9886"
   sodipodi:docname="masterindex.svg"><metadata
   id="metadata48"><rdf:RDF><cc:Work
       rdf:about=""><dc:format>image/svg+xml</dc:format><dc:type
         rdf:resource="http://purl.org/dc/dcmitype/StillImage" /><dc:title /></cc:Work></rdf:RDF></metadata><defs
   id="defs46">
	<linearGradient
   y2="14.7232"
   x2="82.1904"
   y1="82.1377"
   x1="14.7759"
   gradientUnits="userSpaceOnUse"
   id="SVGID_1_">
		<stop
   id="stop6"
   style="stop-color:#3B6872"
   offset="0.1452" />
		<stop
   id="stop8"
   style="stop-color:#66A5AD"
   offset="0.6684" />
	</linearGradient>
	
		
<linearGradient
   inkscape:collect="always"
   xlink:href="#SVGID_1_"
   id="linearGradient3029"
   gradientUnits="userSpaceOnUse"
   x1="14.7759"
   y1="82.1377"
   x2="82.1904"
   y2="14.7232"
   gradientTransform="translate(101.93221,64.940679)" /><linearGradient
   inkscape:collect="always"
   xlink:href="#SVGID_1_-3"
   id="linearGradient3029-1"
   gradientUnits="userSpaceOnUse"
   x1="14.7759"
   y1="82.137703"
   x2="82.190399"
   y2="14.7232"
   gradientTransform="translate(101.93221,64.940679)" /><linearGradient
   y2="14.7232"
   x2="82.190399"
   y1="82.137703"
   x1="14.7759"
   gradientUnits="userSpaceOnUse"
   id="SVGID_1_-3"><stop
     id="stop8-9"
     style="stop-color:#66A5AD"
     offset="0.6684" /></linearGradient><linearGradient
   y2="14.7232"
   x2="82.190399"
   y1="82.137703"
   x1="14.7759"
   gradientTransform="translate(0.02492534,0.09315927)"
   gradientUnits="userSpaceOnUse"
   id="linearGradient3201"
   xlink:href="#SVGID_1_-3"
   inkscape:collect="always" /><linearGradient
   inkscape:collect="always"
   xlink:href="#SVGID_1_-3"
   id="linearGradient3987"
   gradientUnits="userSpaceOnUse"
   gradientTransform="translate(101.93221,64.940679)"
   x1="14.7759"
   y1="82.137703"
   x2="82.190399"
   y2="14.7232" /><linearGradient
   inkscape:collect="always"
   xlink:href="#SVGID_1_-3"
   id="linearGradient3989"
   gradientUnits="userSpaceOnUse"
   gradientTransform="translate(101.93221,64.940679)"
   x1="14.7759"
   y1="82.137703"
   x2="82.190399"
   y2="14.7232" /><linearGradient
   inkscape:collect="always"
   xlink:href="#SVGID_1_-3"
   id="linearGradient3991"
   gradientUnits="userSpaceOnUse"
   gradientTransform="translate(101.93221,64.940679)"
   x1="14.7759"
   y1="82.137703"
   x2="82.190399"
   y2="14.7232" /><linearGradient
   inkscape:collect="always"
   xlink:href="#SVGID_1_-3"
   id="linearGradient3993"
   gradientUnits="userSpaceOnUse"
   gradientTransform="translate(101.93221,64.940679)"
   x1="14.7759"
   y1="82.137703"
   x2="82.190399"
   y2="14.7232" /><linearGradient
   inkscape:collect="always"
   xlink:href="#SVGID_1_-3"
   id="linearGradient3995"
   gradientUnits="userSpaceOnUse"
   gradientTransform="translate(101.93221,64.940679)"
   x1="14.7759"
   y1="82.137703"
   x2="82.190399"
   y2="14.7232" /><linearGradient
   inkscape:collect="always"
   xlink:href="#SVGID_1_-3"
   id="linearGradient3997"
   gradientUnits="userSpaceOnUse"
   gradientTransform="translate(101.93221,64.940679)"
   x1="14.7759"
   y1="82.137703"
   x2="82.190399"
   y2="14.7232" /><linearGradient
   inkscape:collect="always"
   xlink:href="#SVGID_1_-3"
   id="linearGradient3999"
   gradientUnits="userSpaceOnUse"
   gradientTransform="translate(101.93221,64.940679)"
   x1="14.7759"
   y1="82.137703"
   x2="82.190399"
   y2="14.7232" /><linearGradient
   inkscape:collect="always"
   xlink:href="#SVGID_1_-3"
   id="linearGradient4001"
   gradientUnits="userSpaceOnUse"
   gradientTransform="translate(101.93221,64.940679)"
   x1="14.7759"
   y1="82.137703"
   x2="82.190399"
   y2="14.7232" /><linearGradient
   inkscape:collect="always"
   xlink:href="#SVGID_1_-3"
   id="linearGradient4003"
   gradientUnits="userSpaceOnUse"
   gradientTransform="translate(101.93221,64.940679)"
   x1="14.7759"
   y1="82.137703"
   x2="82.190399"
   y2="14.7232" /><linearGradient
   inkscape:collect="always"
   xlink:href="#SVGID_1_-3"
   id="linearGradient4005"
   gradientUnits="userSpaceOnUse"
   gradientTransform="translate(101.93221,64.940679)"
   x1="14.7759"
   y1="82.137703"
   x2="82.190399"
   y2="14.7232" /><linearGradient
   inkscape:collect="always"
   xlink:href="#SVGID_1_-3"
   id="linearGradient4212"
   gradientUnits="userSpaceOnUse"
   gradientTransform="translate(101.93221,64.940679)"
   x1="14.7759"
   y1="82.137703"
   x2="82.190399"
   y2="14.7232" /><radialGradient
   inkscape:collect="always"
   xlink:href="#linearGradient4477"
   id="radialGradient1527"
   gradientUnits="userSpaceOnUse"
   gradientTransform="matrix(1,0,0,0.237968,0,28.93278)"
   cx="24.130018"
   cy="37.967922"
   fx="24.130018"
   fy="37.967922"
   r="16.528622" /><linearGradient
   id="linearGradient4477"
   inkscape:collect="always"><stop
     id="stop4479"
     offset="0"
     style="stop-color:#000000;stop-opacity:1;" /><stop
     id="stop4481"
     offset="1"
     style="stop-color:#000000;stop-opacity:0;" /></linearGradient><linearGradient
   id="linearGradient2846"><stop
     style="stop-color:#8a8a8a;stop-opacity:1.0000000;"
     offset="0.0000000"
     id="stop2848" /><stop
     style="stop-color:#484848;stop-opacity:1.0000000;"
     offset="1.0000000"
     id="stop2850" /></linearGradient><linearGradient
   id="linearGradient4440"><stop
     id="stop4442"
     offset="0"
     style="stop-color:#7d7d7d;stop-opacity:1;" /><stop
     style="stop-color:#b1b1b1;stop-opacity:1.0000000;"
     offset="0.50000000"
     id="stop4448" /><stop
     id="stop4444"
     offset="1.0000000"
     style="stop-color:#686868;stop-opacity:1.0000000;" /></linearGradient><linearGradient
   inkscape:collect="always"
   xlink:href="#linearGradient2366"
   id="linearGradient1533"
   gradientUnits="userSpaceOnUse"
   x1="18.292673"
   y1="13.602121"
   x2="17.500893"
   y2="25.743469" /><linearGradient
   id="linearGradient2366"><stop
     style="stop-color:#ffffff;stop-opacity:1;"
     offset="0"
     id="stop2368" /><stop
     id="stop2374"
     offset="0.50000000"
     style="stop-color:#ffffff;stop-opacity:0.21904762;" /><stop
     style="stop-color:#ffffff;stop-opacity:1.0000000;"
     offset="1.0000000"
     id="stop2370" /></linearGradient><radialGradient
   inkscape:collect="always"
   xlink:href="#linearGradient4454"
   id="radialGradient1537"
   gradientUnits="userSpaceOnUse"
   cx="18.240929"
   cy="21.817987"
   fx="18.240929"
   fy="21.817987"
   r="8.3085051" /><linearGradient
   id="linearGradient4454"><stop
     id="stop4456"
     offset="0.0000000"
     style="stop-color:#729fcf;stop-opacity:0.20784314;" /><stop
     id="stop4458"
     offset="1.0000000"
     style="stop-color:#729fcf;stop-opacity:0.67619050;" /></linearGradient><radialGradient
   inkscape:collect="always"
   xlink:href="#linearGradient4467"
   id="radialGradient1539"
   gradientUnits="userSpaceOnUse"
   gradientTransform="matrix(2.592963,0,0,2.252104,-25.05975,-18.941)"
   cx="15.414371"
   cy="13.078408"
   fx="15.414371"
   fy="13.078408"
   r="6.65625" /><linearGradient
   id="linearGradient4467"><stop
     id="stop4469"
     offset="0"
     style="stop-color:#ffffff;stop-opacity:1;" /><stop
     id="stop4471"
     offset="1.0000000"
     style="stop-color:#ffffff;stop-opacity:0.24761905;" /></linearGradient><linearGradient
   inkscape:collect="always"
   xlink:href="#linearGradient4440"
   id="linearGradient3097"
   gradientUnits="userSpaceOnUse"
   gradientTransform="matrix(1.9064267,0,0,1.8445725,12.829432,22.179428)"
   x1="30.65625"
   y1="34"
   x2="33.21875"
   y2="31.0625" /><linearGradient
   inkscape:collect="always"
   xlink:href="#linearGradient2846"
   id="linearGradient3101"
   gradientUnits="userSpaceOnUse"
   x1="27.366341"
   y1="26.580296"
   x2="31.335964"
   y2="30.557772"
   gradientTransform="matrix(1.4284705,0,0,1.4284705,22.79136,32.836758)" /><radialGradient
   inkscape:collect="always"
   xlink:href="#linearGradient4477"
   id="radialGradient3152"
   gradientUnits="userSpaceOnUse"
   gradientTransform="matrix(1,0,0,0.237968,0,28.93278)"
   cx="24.130018"
   cy="37.967922"
   fx="24.130018"
   fy="37.967922"
   r="16.528622" /><linearGradient
   inkscape:collect="always"
   xlink:href="#linearGradient2846"
   id="linearGradient3154"
   gradientUnits="userSpaceOnUse"
   gradientTransform="matrix(1.4284705,0,0,1.4284705,22.79136,32.836758)"
   x1="27.366341"
   y1="26.580296"
   x2="31.335964"
   y2="30.557772" /><linearGradient
   inkscape:collect="always"
   xlink:href="#linearGradient4440"
   id="linearGradient3156"
   gradientUnits="userSpaceOnUse"
   gradientTransform="matrix(1.9064267,0,0,1.8445725,12.829432,22.179428)"
   x1="30.65625"
   y1="34"
   x2="33.21875"
   y2="31.0625" /><linearGradient
   inkscape:collect="always"
   xlink:href="#linearGradient2366"
   id="linearGradient3158"
   gradientUnits="userSpaceOnUse"
   x1="18.292673"
   y1="13.602121"
   x2="17.500893"
   y2="25.743469" /><radialGradient
   inkscape:collect="always"
   xlink:href="#linearGradient4454"
   id="radialGradient3160"
   gradientUnits="userSpaceOnUse"
   cx="18.240929"
   cy="21.817987"
   fx="18.240929"
   fy="21.817987"
   r="8.3085051" /><linearGradient
   inkscape:collect="always"
   xlink:href="#SVGID_1_-3"
   id="linearGradient3162"
   gradientUnits="userSpaceOnUse"
   gradientTransform="translate(101.93221,64.940679)"
   x1="14.7759"
   y1="82.137703"
   x2="82.190399"
   y2="14.7232" /><linearGradient
   inkscape:collect="always"
   xlink:href="#SVGID_1_-3"
   id="linearGradient3164"
   gradientUnits="userSpaceOnUse"
   gradientTransform="translate(101.93221,64.940679)"
   x1="14.7759"
   y1="82.137703"
   x2="82.190399"
   y2="14.7232" /><linearGradient
   inkscape:collect="always"
   xlink:href="#SVGID_1_-3"
   id="linearGradient3166"
   gradientUnits="userSpaceOnUse"
   gradientTransform="translate(101.93221,64.940679)"
   x1="14.7759"
   y1="82.137703"
   x2="82.190399"
   y2="14.7232" /><linearGradient
   inkscape:collect="always"
   xlink:href="#SVGID_1_-3"
   id="linearGradient3168"
   gradientUnits="userSpaceOnUse"
   gradientTransform="translate(101.93221,64.940679)"
   x1="14.7759"
   y1="82.137703"
   x2="82.190399"
   y2="14.7232" /><linearGradient
   inkscape:collect="always"
   xlink:href="#SVGID_1_-3"
   id="linearGradient3170"
   gradientUnits="userSpaceOnUse"
   gradientTransform="translate(101.93221,64.940679)"
   x1="14.7759"
   y1="82.137703"
   x2="82.190399"
   y2="14.7232" /><linearGradient
   inkscape:collect="always"
   xlink:href="#SVGID_1_-3"
   id="linearGradient3172"
   gradientUnits="userSpaceOnUse"
   gradientTransform="translate(101.93221,64.940679)"
   x1="14.7759"
   y1="82.137703"
   x2="82.190399"
   y2="14.7232" /><linearGradient
   inkscape:collect="always"
   xlink:href="#SVGID_1_-3"
   id="linearGradient3174"
   gradientUnits="userSpaceOnUse"
   gradientTransform="translate(101.93221,64.940679)"
   x1="14.7759"
   y1="82.137703"
   x2="82.190399"
   y2="14.7232" /><linearGradient
   inkscape:collect="always"
   xlink:href="#SVGID_1_-3"
   id="linearGradient3176"
   gradientUnits="userSpaceOnUse"
   gradientTransform="translate(101.93221,64.940679)"
   x1="14.7759"
   y1="82.137703"
   x2="82.190399"
   y2="14.7232" /><linearGradient
   inkscape:collect="always"
   xlink:href="#SVGID_1_-3"
   id="linearGradient3178"
   gradientUnits="userSpaceOnUse"
   gradientTransform="translate(101.93221,64.940679)"
   x1="14.7759"
   y1="82.137703"
   x2="82.190399"
   y2="14.7232" /><linearGradient
   inkscape:collect="always"
   xlink:href="#SVGID_1_-3"
   id="linearGradient3180"
   gradientUnits="userSpaceOnUse"
   gradientTransform="translate(101.93221,64.940679)"
   x1="14.7759"
   y1="82.137703"
   x2="82.190399"
   y2="14.7232" /><linearGradient
   inkscape:collect="always"
   xlink:href="#SVGID_1_-3"
   id="linearGradient3182"
   gradientUnits="userSpaceOnUse"
   gradientTransform="translate(101.93221,64.940679)"
   x1="14.7759"
   y1="82.137703"
   x2="82.190399"
   y2="14.7232" /></defs><sodipodi:namedview
   pagecolor="#ffffff"
   bordercolor="#666666"
   borderopacity="1"
   objecttolerance="10"
   gridtolerance="10"
   guidetolerance="10"
   inkscape:pageopacity="0"
   inkscape:pageshadow="2"
   inkscape:window-width="1156"
   inkscape:window-height="740"
   id="namedview44"
   showgrid="false"
   inkscape:zoom="14.057283"
   inkscape:cx="47.227696"
   inkscape:cy="57.226596"
   inkscape:window-x="49"
   inkscape:window-y="121"
   inkscape:window-maximized="0"
   inkscape:current-layer="Capa_1" />



<g
   transform="matrix(0.09299869,0,0,0.09299869,-5.4926006,8.535773)"
   i:rgbTrio="#4F008000FFFF"
   i:dimmedPercent="100"
   i:layer="yes"
   id="Land"
   style="color:#000000;fill:url(#linearGradient3182);fill-opacity:1;fill-rule:nonzero;stroke:#498089;stroke-width:6.98934555;stroke-linecap:round;stroke-linejoin:round;stroke-miterlimit:22.92560005;stroke-opacity:1;stroke-dasharray:none;stroke-dashoffset:0;marker:none;visibility:visible;display:inline;overflow:visible;enable-background:accumulate"><polygon
     style="color:#000000;fill:url(#linearGradient3162);fill-opacity:1;fill-rule:nonzero;stroke:#498089;stroke-width:6.98934555;stroke-linecap:round;stroke-linejoin:round;stroke-miterlimit:22.92560005;stroke-opacity:1;stroke-dasharray:none;stroke-dashoffset:0;marker:none;visibility:visible;display:inline;overflow:visible;enable-background:accumulate"
     id="polygon2531"
     points="649.174,485.433 642.185,491.85 639.684,492.906 638.768,493.292 625.154,494.271 621.654,493.318 617.938,490.879 611.836,489.212 609.028,486.786 606.094,485.611 600.157,479.302 599.256,478.348 596.102,476.487 592.249,476.329 587.506,468.654 584.225,463.353 581.753,461.272 574.415,458.339 567.332,452.331 558.472,442.881 558.065,442.313 554.334,437.134 538.096,427.495 532.664,426.41 531.32,424.686 522.753,419.607 521.833,419.072 516.996,416.211 514.732,415.616 505.426,415.863 488.492,418.658 483.024,421.34 476.993,422.877 473.223,425.691 467.997,426.781 466.306,425.51 463.127,425.821 461.333,423.523 447.903,415.867 440.471,413.997 439.41,413.734 431.902,414.735 424.175,417.471 420.671,415.842 417.942,416.388 415.798,415.342 412.5,416.338 407.399,415.722 397.624,417.802 389.385,416.916 379.148,415.816 375.276,417.38 371.441,417.487 369.034,417.555 364.254,419.567 361.071,419.996 358.808,419.521 359.504,417.816 359.179,415.533 354.201,413.781 349.022,408.834 347.115,405.625 344.617,405.719 342.256,402.962 336.15,399.948 334.586,396.97 331.994,394.554 331.551,393.068 332.142,389.765 331.371,386.68 330.639,385.782 327.997,382.547 322.904,380.795 319.862,377.807 317.371,377.15 313.176,376.044 313.763,373.425 312.174,357.673 314.581,354.499 315.969,351.087 315.886,347.095 314.772,343.894 312.073,340.678 307.737,336.937 299.85,334.654 296.577,331.778 294.198,330.734 292.367,332.773 290.774,332.875 288.406,330.576 287.047,330.224 281.359,331.094 279.409,334.273 269.313,332.489 264.894,330.519 261.635,325.477 261.647,324.109 259.617,321.584 259.066,318.481 258.522,315.418 256.993,314.242 253.435,311.504 250.653,302.702 242.864,294.55 240.817,294.879 239.119,293.727 235.377,292.902 235.269,291.533 234.033,289.814 229.116,288.062 226.208,287.023 224.402,284.845 224.193,282.22 225.454,280.403 225.011,278.347 221.179,273.076 222.675,270.348 222.466,267.038 220.909,261.667 215.636,249.77 211.116,245.406 205.788,242.862 199.762,242.597 196.691,242.805 195.311,245.648 193.944,245.754 193.393,243.013 191.583,241.291 184.987,241.364 172.235,244.823 169.29,242.866 164.846,244.094 163.144,243.514 161.789,241.795 161.796,240.655 157.248,240.514 151.217,241.735 138.465,245.085 136.749,246.558 130.257,249.26 124.79,251.284 122.18,249.901 119.469,246.693 116.518,245.651 115.501,244.504 112.459,238.101 110.073,238.089 107.121,237.047 101.779,237.146 92.566,237.316 89.729,235.819 81.778,233.614 72.586,229.007 65.565,222.359 63.089,215.389 64.012,212.542 66.185,209.358 68.582,207.43 73.185,206.764 73.935,206.656 77.254,201.083 77.319,199.63 78.011,184.318 75.87,179.517 78.17,173.825 74.205,170.042 74.439,168.674 77.755,164.469 81.064,162.431 84.705,163.476 86.28,166.906 87.646,167.141 89.697,166.352 90.519,161.109 93.485,159.184 97.623,150.992 100.016,150.091 104.68,150.457 106.962,149.441 108.999,152.418 109.809,149.457 109.143,145.689 110.408,142.958 112.689,142.057 114.063,140.581 118.504,140.946 119.549,136.617 122.173,135.604 123.088,134.468 122.526,132.869 123.56,131.089 124.249,129.912 126.65,127.643 128.927,127.655 129.847,126.405 131.897,125.618 132.255,123.111 135.451,121.188 136.601,119.027 140.015,119.844 141.269,119.395 143.086,120.66 144.906,120.784 146.164,119.65 151.282,121.163 154.703,120.156 157.424,121.996 157.871,124.052 157.399,126.673 158.87,128.621 163.314,128.305 163.894,126.027 162.997,123.512 163.923,121.007 165.531,118.621 169.182,117.388 178.294,116.986 181.689,120.542 183.852,120.898 184.98,122.845 184.623,125.352 186.671,125.592 187.716,122.291 188.74,122.069 191.234,124.366 192.373,124.487 194.427,123.13 199.668,123.164 201.719,122.492 203.503,122.695 204.906,122.854 207.306,121.729 212.309,122.902 215.726,122.811 217.326,121.565 228.605,120.727 232.836,118.247 236.287,119.035 237.951,119.421 239.869,122.743 242.136,123.898 248.303,121.432 257.728,125.604 263.993,125.078 265.006,127.025 267.861,125.79 267.771,122.367 266.08,119.503 265.864,117.677 267.021,115.175 269.309,113.708 269.897,111.088 268.452,105.603 269.544,103.332 271.57,99.123 273.635,96.97 277.632,95.63 282.098,92.24 286.43,91.588 291.686,89.574 293.178,88.329 302.182,87.827 307.207,86.04 320.539,85.801 326,86.757 328.505,86.549 342.829,90.656 353.751,92.685 361.617,93.706 369.682,94.757 372.069,95.576 373.655,96.844 374.776,99.021 377.161,99.954 379.641,102.941 381.119,103.297 382.258,103.307 385.092,105.042 388.169,104.84 389.665,103.028 388.649,102.107 384.439,101.5 387.863,100.388 395.49,101.026 398.575,99.684 401.196,99.935 402.443,100.745 403.888,104.914 408.196,107.298 411.728,107.102 413.905,105.411 413.685,104.496 410.279,103.21 409.609,101.835 413.714,101.302 416.778,102.584 422.325,106.399 425.511,106.771 428.265,104.514 432.136,104.777 439.89,103.938 443.303,104.426 451.233,103.745 455.27,103.398 458.207,106.278 464.569,107.937 467.766,107.055 470.614,107.197 477.196,109.885 487.119,108.385 489.246,108.661 489.962,108.756 491.891,109.574 495.142,114.74 496.623,114.983 497.997,114.199 498.815,111.925 500.66,109.662 503.05,109.686 505.44,110.983 505.728,111.14 508.828,112.825 513.6,114.128 514.257,116.988 517.082,118.956 520.957,118.768 521.653,117.634 520.193,115.452 521.109,115.005 527.932,115.989 529.993,114.642 531.248,114.655 540.767,119.318 543.503,119.233 545.453,117.771 557.647,116.99 558.905,116.433 560.984,113.604 562.581,113.278 565.868,115.025 568.47,115.136 576.682,115.486 588.717,119.043 591.222,118.843 592.689,120.115 595.998,119.696 598.409,120.352 605.197,122.196 604.594,124.927 606.173,126.542 611.976,126.951 614.683,129.037 620.144,129.669 622.325,127.984 624.005,129.073 624.473,129.378 627.893,128.962 629.707,129.896 634.425,135.655 644.507,140.224 649.621,140.969 651.643,143.275 654.48,143.995 657.421,145.741 659.696,145.997 664.504,143.545 671.216,143.97 672.826,142.621 674.435,142.321 675.108,142.192 676.381,140.611 678.997,140.758 683.333,140.013 684.26,138.769 687.572,137.784 690.059,139.069 699.611,140.103 701.496,144.461 702.509,145.387 703.99,145.292 706.852,143.845 709.019,143.644 718.538,147.189 724.474,145.896 730.912,149.973 733.078,149.772 736.11,144.108 739.094,142.322 746.494,142.305 750.808,143.383 752.282,143.751 758.327,143.033 759.798,143.624 762.051,145.593 762.588,148.11 759.773,154.348 759.499,157.994 761.168,160.868 761.701,163.613 764.419,164.905 769.775,164.292 770.341,165.265 771.112,166.593 775.643,168.25 778.209,171.937 783.054,175.768 784.986,176.136 791.633,181.019 794.239,182.081 801.051,183.203 802.586,187.331 799.901,192.427 800.56,194.148 804.388,197.281 806.944,201.88 807.759,205.25 807.914,205.886 811.497,210.043 813.508,212.581 821.369,211.895 825.132,211.263 829.706,209.389 831.296,209.526 835.682,213.353 838.043,215.326 844.744,215.994 848.294,214.22 849.103,214.413 860.311,217.133 862.117,218.073 867.159,223.394 871.388,230.073 874.448,230.917 878.373,234.626 886.89,235.552 893.609,234.855 893.764,234.796 900.357,232.333 902.952,233.741 906.538,237.218 913.336,246.677 923.306,249.112 927.321,246.665 928.803,246.574 934.984,251.233 937.266,250.813 941.065,247.792 944.017,247.953 945.412,245.921 947.247,244.924 954.744,245.499 957.217,247.363 958.741,251.836 960.648,253.35 960.674,253.397 961.974,255.995 964.894,258.323 967.504,258.708 970.132,257.723 973.048,260.279 973.981,258.925 974.251,255.964 975.055,255.521 983.987,258.631 984.171,261.485 990.118,259.302 990.868,262.166 994.977,261.207 996.246,260.086 997.377,260.333 997.821,262.447 997.907,262.852 1000.048,263.401 1000.282,263.461 1000.751,262.556 1004.046,262.724 1005.498,264.346 1009.019,264.518 1011.939,266.734 1013.814,270.416 1015.511,270.786 1016.73,272.974 1018.997,273.354 1022.536,272.272 1023.773,273.091 1024.637,275.844 1022.958,281.406 1025.424,283.5 1027.42,286.5 1030.719,286.328 1031.609,287.597 1030.956,289.972 1030.642,291.117 1030.851,291.805 1032.153,296.047 1036.298,299.653 1046.747,313.749 1048.153,317.993 1047.778,320.154 1050.377,320.882 1050.233,322.819 1053.372,325.269 1052.623,329.249 1050.114,330.003 1049.407,331.475 1049.833,333.079 1050.961,333.554 1053.246,332.909 1053.708,339.19 1053.913,340.677 1058.174,343.944 1060.308,348.822 1060.469,349.231 1063.616,351.11 1065.476,355.364 1068.37,358.95 1071.294,360.597 1071.726,361.86 1069.855,365.134 1069.96,367.217 1070.111,370.158 1068.266,371.952 1068.356,373.208 1072.501,376.588 1075.395,379.946 1081.635,380.169 1084.003,381.123 1086.742,380.373 1089.2,382.583 1091.828,388.219 1094.773,388.728 1095.995,390.232 1095.605,393.076 1091.731,394.035 1091.68,396.885 1090.985,397.785 1088.937,397.977 1084.222,394.929 1081.263,395.562 1075.103,397.279 1072.414,400.304 1070.71,402.22 1062.178,403.328 1057.683,407.356 1056.09,407.785 1053.376,407.168 1051.365,405.195 1047.822,406.844 1046.116,406.815 1043.806,409.399 1040.735,409.803 1039.106,412.285 1034.564,412.437 1032.279,413.424 1030.354,413.163 1029.821,410.987 1030.787,407.582 1033.353,403.177 1032.921,401.915 1031.327,402.115 1027.427,404.788 1023.207,406.086 1022.05,407.548 1023.992,413.512 1023.07,414.523 1020.904,415.057 1019.829,418.347 1016.765,418.41 1016.759,418.867 1015.757,417.823 1015.443,415.993 1007.059,414.167 1005.127,413.911 1001.803,411.363 993.203,408.328 988.874,408.502 985.166,409.973 982.264,409.631 981.95,409.966 976.926,412.166 975.534,412.079 969.554,411.704 954.102,413.054 947.492,415.002 945.737,418.396 939.209,422.513 935.449,423.481 929.325,423.384 928.089,423.028 925.144,422.179 924.705,421.146 925.177,419.899 927.996,421.197 928.082,421.202 930.573,421.344 936.271,421.668 940.377,420.251 944.165,417.345 944.522,416.324 937.475,417.125 932.602,416.707 928.169,415.122 924.928,413.963 920.005,413.37 919.117,413.84 919.424,414.731 923.876,415.886 924.766,417.041 924.304,417.718 912.453,413.429 900.757,414.048 897.019,413.535 895.21,413.051 892.633,410.845 890.697,405.21 890.347,404.195 886.158,395.579 885.744,392.948 884.054,392.01 883.455,394.283 880.431,391.386 876.661,385.285 873.717,384.67 871.694,383.385 870.794,381.477 870.371,380.628 866.987,378.982 858.141,378.509 851.141,375.669 846.283,374.783 845.706,374.678 836.461,378.422 824.89,377.572 820.428,380.246 817.087,383.848 814.924,384.388 797.508,379.695 787.617,380.157 784.33,380.311 783.775,379.277 785.501,377.59 790.54,374.353 793.676,377.475 799.584,377.214 806.818,379.369 809.518,381.118 811.677,381.148 813.418,378.322 814.895,378 814.023,375.478 822.418,375.825 826.862,374.748 831.061,374.808 832.651,375.313 834.449,375.883 837.408,375.47 840.267,373.914 840.97,372.555 839.204,370.345 838.847,369.901 832.442,365.247 829.277,364.061 823.481,364.435 821.877,365.552 819.614,365.064 816.636,366.848 806.879,366.367 802.62,364.174 798.423,362.028 794.346,358.63 792.022,356.693 790.266,352.106 786.55,349.66 784.049,349.967 780.676,352.449 779.922,352.99 777.031,357.057 775.506,360.687 776.494,363.324 775.34,364.562 772.738,364.07 770.965,369.293 771.411,369.984 774.039,368.65 777.831,365.052 781.244,364.757 782.023,365.794 775.751,369.359 772.849,372.741 772.457,376.727 769.894,381.71 768.863,382.495 768.149,384.995 768.903,388.313 768.423,388.983 766.625,388.852 763.471,386.871 762.22,386.968 760.605,388.999 758.673,389.201 757.52,390.782 760.45,392.19 762.357,394.156 764.084,393.877 765.976,392.311 763.925,394.889 761.989,396.089 761.146,399.956 760.118,400.398 759.175,403.352 757.556,405.611 757.437,405.99 756.017,410.494 751.872,415.343 749.936,415.773 748.523,419.861 745.185,423.581 737.328,425.871 732.188,428.654 729.358,428.048 728.591,425.985 726.998,426.306 725.195,425.371 724.55,422.511 723.31,421.81 720.469,422.002 718.069,423.454 717.244,426.18 715.446,424.674 713.506,425.57 710.882,426.782 706.852,422.511 703.241,420.982 698.018,421.031 695.279,422.479 692.856,425.869 691.728,425.171 690.521,421.848 690.553,419.111 691.594,417.528 690.935,415.694 692.755,415.375 693.905,414.135 695.693,416.324 696.724,415.539 696.295,413.481 697.459,411.214 695.102,408.903 693.905,404.783 689.76,400.396 687.291,397.856 684.577,397.252 680.634,394.58 677.411,398.531 676.052,398.287 675.047,396.792 675.195,393.942 674.189,392.561 672.823,392.887 671.551,395.152 669.604,396.611 669.464,398.776 666.742,398.628 666.324,395.658 661.88,397.086 657.994,399.434 654.711,398.709 652.09,399.59 645.084,405.294 645.084,405.294 644.759,405.547 639.244,411.754 638.739,413.982 637.211,420.74 632.803,429.47 633.232,431.528 636.241,436.354 642.225,438.591 642.437,439.849 641.169,441.772 640.267,441.191 640.282,440.051 634.619,439.186 631.689,437.554 627.328,441.95 626.387,445.019 622.184,445.768 620.696,446.891 620.422,448.118 620.339,448.483 620.886,450.086 623.265,450.228 624.646,448.534 626.351,448.325 627.674,451.648 625.922,456.304 625.655,459.722 622.487,459.001 621.366,458.076 620.508,453.618 619.73,452.354 617.916,452.104 613.353,454.446 609.46,457.708 608.88,459.185 610.077,463.532 614.171,462.667 620.404,463.082 622.498,465.085 625.115,467.584 626.927,467.72 630.795,466.512 633.844,467.46 636.822,465.214 639.539,465.247 640.469,463.319 642.844,464.032 643.735,465.525 640.859,468.911 642.971,472.701 646.644,475.444 649.491,477.569 649.686,480.308 "
     stroke-miterlimit="3.8637"
     clip-rule="evenodd"
     i:knockout="Off" /><polygon
     style="color:#000000;fill:url(#linearGradient3164);fill-opacity:1;fill-rule:nonzero;stroke:#498089;stroke-width:6.98934555;stroke-linecap:round;stroke-linejoin:round;stroke-miterlimit:22.92560005;stroke-opacity:1;stroke-dasharray:none;stroke-dashoffset:0;marker:none;visibility:visible;display:inline;overflow:visible;enable-background:accumulate"
     id="polygon2533"
     points="672.567,404.973 676.658,404.567 677.581,403.324 678.94,403.569 680.158,406.207 677.833,410.854 677.833,410.854 675.375,407.631 673.108,407.489 671.763,405.876 "
     stroke-miterlimit="3.8637"
     clip-rule="evenodd"
     i:knockout="Off" /><polygon
     style="color:#000000;fill:url(#linearGradient3166);fill-opacity:1;fill-rule:nonzero;stroke:#498089;stroke-width:6.98934555;stroke-linecap:round;stroke-linejoin:round;stroke-miterlimit:22.92560005;stroke-opacity:1;stroke-dasharray:none;stroke-dashoffset:0;marker:none;visibility:visible;display:inline;overflow:visible;enable-background:accumulate"
     id="polygon2535"
     points="682.065,407.942 682.865,407.382 684.782,408.318 689.367,414.191 687.731,418.164 686.253,418.373 686.253,418.373 684.343,416.866 682.36,411.823 682.72,410.003 "
     stroke-miterlimit="3.8637"
     clip-rule="evenodd"
     i:knockout="Off" /><path
     inkscape:connector-curvature="0"
     style="color:#000000;fill:url(#linearGradient3168);fill-opacity:1;fill-rule:nonzero;stroke:#498089;stroke-width:6.98934555;stroke-linecap:round;stroke-linejoin:round;stroke-miterlimit:22.92560005;stroke-opacity:1;stroke-dasharray:none;stroke-dashoffset:0;marker:none;visibility:visible;display:inline;overflow:visible;enable-background:accumulate"
     id="path2537"
     d="m 644.632,432.586 c -1.371,0 -2.512,2.747 -0.229,2.747 2.285,0 1.6,-2.747 0.229,-2.747 z"
     stroke-miterlimit="3.8637"
     clip-rule="evenodd"
     i:knockout="Off" /><path
     inkscape:connector-curvature="0"
     style="color:#000000;fill:url(#linearGradient3170);fill-opacity:1;fill-rule:nonzero;stroke:#498089;stroke-width:6.98934555;stroke-linecap:round;stroke-linejoin:round;stroke-miterlimit:22.92560005;stroke-opacity:1;stroke-dasharray:none;stroke-dashoffset:0;marker:none;visibility:visible;display:inline;overflow:visible;enable-background:accumulate"
     id="path2539"
     d="m 666.576,467.105 c -0.685,0.914 -0.457,2.284 0.457,3.198 0.914,0.914 2.055,1.827 2.969,1.37 0.914,-0.457 0.685,-1.37 -0.229,-2.284 -0.914,-0.914 -2.512,-3.198 -3.197,-2.284 z"
     stroke-miterlimit="3.8637"
     clip-rule="evenodd"
     i:knockout="Off" /><path
     inkscape:connector-curvature="0"
     style="color:#000000;fill:url(#linearGradient3172);fill-opacity:1;fill-rule:nonzero;stroke:#498089;stroke-width:6.98934555;stroke-linecap:round;stroke-linejoin:round;stroke-miterlimit:22.92560005;stroke-opacity:1;stroke-dasharray:none;stroke-dashoffset:0;marker:none;visibility:visible;display:inline;overflow:visible;enable-background:accumulate"
     id="path2541"
     d="m 630.231,453.161 c -1.142,0.914 -0.919,2.284 0.457,2.284 1.376,0 3.66,-0.686 2.747,-2.284 -0.913,-1.598 -2.062,-0.914 -3.204,0 z"
     stroke-miterlimit="3.8637"
     clip-rule="evenodd"
     i:knockout="Off" /><path
     inkscape:connector-curvature="0"
     style="color:#000000;fill:url(#linearGradient3174);fill-opacity:1;fill-rule:nonzero;stroke:#498089;stroke-width:6.98934555;stroke-linecap:round;stroke-linejoin:round;stroke-miterlimit:22.92560005;stroke-opacity:1;stroke-dasharray:none;stroke-dashoffset:0;marker:none;visibility:visible;display:inline;overflow:visible;enable-background:accumulate"
     id="path2543"
     d="m 677.774,478.759 c -1.142,-0.457 -2.056,2.284 -0.914,2.741 1.143,0.457 2.056,-2.284 0.914,-2.741 z"
     stroke-miterlimit="3.8637"
     clip-rule="evenodd"
     i:knockout="Off" /><path
     inkscape:connector-curvature="0"
     style="color:#000000;fill:url(#linearGradient3176);fill-opacity:1;fill-rule:nonzero;stroke:#498089;stroke-width:6.98934555;stroke-linecap:round;stroke-linejoin:round;stroke-miterlimit:22.92560005;stroke-opacity:1;stroke-dasharray:none;stroke-dashoffset:0;marker:none;visibility:visible;display:inline;overflow:visible;enable-background:accumulate"
     id="path2545"
     d="m 691.49,474.186 c -0.914,-0.914 -3.197,0.691 -2.056,2.29 1.142,1.598 2.97,-1.377 2.056,-2.29 z"
     stroke-miterlimit="3.8637"
     clip-rule="evenodd"
     i:knockout="Off" /><path
     inkscape:connector-curvature="0"
     style="color:#000000;fill:url(#linearGradient3178);fill-opacity:1;fill-rule:nonzero;stroke:#498089;stroke-width:6.98934555;stroke-linecap:round;stroke-linejoin:round;stroke-miterlimit:22.92560005;stroke-opacity:1;stroke-dasharray:none;stroke-dashoffset:0;marker:none;visibility:visible;display:inline;overflow:visible;enable-background:accumulate"
     id="path2547"
     d="m 659.947,492.019 c -1.142,-1.148 -2.05,0.457 -3.198,1.599 -1.148,1.142 0,2.741 1.827,1.142 1.828,-1.599 2.513,-1.593 1.371,-2.741 z"
     stroke-miterlimit="3.8637"
     clip-rule="evenodd"
     i:knockout="Off" /><path
     inkscape:connector-curvature="0"
     style="color:#000000;fill:url(#linearGradient3180);fill-opacity:1;fill-rule:nonzero;stroke:#498089;stroke-width:6.98934555;stroke-linecap:round;stroke-linejoin:round;stroke-miterlimit:22.92560005;stroke-opacity:1;stroke-dasharray:none;stroke-dashoffset:0;marker:none;visibility:visible;display:inline;overflow:visible;enable-background:accumulate"
     id="path2549"
     d="m 455.219,442.238 c -2,1 -1.25,3.75 1,2 2.25,-1.75 1,-3 -1,-2 z"
     stroke-miterlimit="3.8637"
     clip-rule="evenodd"
     i:knockout="Off" /></g><path
   i:knockout="Off"
   clip-rule="evenodd"
   stroke-miterlimit="3.8637"
   d="m 41.409522,33.642815 c 0,0 0.220593,0.0824 0.315079,-0.220593 0.09449,-0.302896 0.06305,-0.302896 0.188974,-0.460436 0.126013,-0.157447 0.334516,-0.346513 0.334516,-0.346513 0,0 0.283553,0.03153 0.441,0.15754 0.157539,0.126013 0.14545,0.188973 0.20841,0.346513 0.06305,0.157539 0.315079,0.14545 0.378039,0.271463 0.06296,0.126013 0.106577,0.252026 0.2205,0.346513 0.113924,0.09449 0.05087,0.189066 0.334424,0.15754 0.283553,-0.03153 0.586449,-0.0824 0.617976,0.126013 0.03153,0.20841 0.106576,0.617976 0.37804,0.554923 0.27137,-0.06296 0.460436,-0.239936 0.460436,0.03153 0,0.271463 0.138103,0.283553 0.346513,0.220593 0.20841,-0.06305 0.46053,-0.106577 0.61807,0.0824 0.157446,0.189067 0.20841,0.37804 0.397383,0.47262 0.189066,0.09449 0.189066,0.09449 0.346606,0.09449 0.157447,0 0.42891,0.01944 0.42891,0.176884 0,0.15754 0.06296,0.189066 0.283553,0.31508 0.2205,0.126013 0.36595,0.220499 0.554923,0.09449 0.188974,-0.126013 0.52349,-0.314986 0.554923,-0.126013 0.03153,0.189066 0.03153,0.220593 0.189067,0.220593 0.157539,0 0.441092,0.05087 0.441092,0.302897 0,0.252026 -0.01209,0.378039 0.113924,0.378039 0.126013,0 0.15754,0.14545 0.126013,0.271463 -0.03153,0.126014 0.157447,0.523397 0.252027,0.2205 0.09449,-0.302896 0.05087,-0.315079 0.365949,-0.189066 0.31508,0.126013 0.441093,0.31508 0.220593,0.31508 -0.220593,0 -0.346513,0.201156 -0.189066,0.315079 0.15754,0.113924 0.20841,0.239937 0.03153,0.27137 -0.176884,0.03153 -0.126014,0.15754 -0.06305,0.252027 0.06305,0.09458 0.409567,0.617976 0.441093,0.775516 0.03153,0.15754 0.239937,0.523489 0.429003,0.58645 0.188973,0.06305 0.314987,0.20841 0.314987,0.555016 0,0.346513 0.126013,0.441 -0.03143,0.472526 -0.15754,0.03153 -0.126013,0.14545 -0.06305,0.30299 0.06305,0.157447 0.06305,0.295643 0.03153,0.441 -0.03153,0.14545 -0.126014,0.365949 -0.126014,0.491963 0,0.126013 -0.01209,0.15754 -0.157539,0.252026 -0.14545,0.09458 -0.176884,0.239937 -0.36595,0.271463 -0.189067,0.03153 -0.295643,0.03153 -0.409566,0.126014 -0.113924,0.09449 -0.334424,0.252026 -0.491964,0.314986 -0.157539,0.06305 -0.397383,0.15754 -0.554923,0.126013 -0.15754,-0.03153 -0.334423,-0.157539 -0.555016,-0.09458 -0.2205,0.06305 -0.27137,0.176883 -0.06296,0.334423 0.20841,0.15754 0.302897,0.264116 0.239937,0.409566 -0.06305,0.14545 0.03143,0.271463 0.188973,0.20841 0.15754,-0.06296 0.315079,0.126014 0.15754,0.2205 -0.15754,0.09458 -0.09449,0.220593 0,0.31508 0.09449,0.09458 0.157539,0.36595 0,0.42891 -0.15754,0.06305 -0.15754,0.264116 -0.189067,0.378039 -0.03143,0.113924 -0.106576,0.20841 -0.252026,0.20841 -0.145357,0 0.126013,0.42891 0.189066,0.58645 0.06296,0.15754 0.03153,0.2205 -0.03153,0.314987 -0.06296,0.09458 -0.126014,0.523489 -0.03153,0.649503 0.09458,0.126013 0.252027,0.365949 0.220593,0.617976 -0.03143,0.252026 -0.113923,0.472619 0.126013,0.441093 0.239937,-0.03153 0.448347,0.07514 0.27137,0.189066 -0.176883,0.113923 -0.259373,0.20841 -0.113923,0.302897 0.145357,0.09449 0.188973,0.409566 0,0.409566 -0.189066,0 -0.189066,0.145357 -0.09458,0.334423 0.09458,0.188974 0.220593,0.283553 0.06305,0.346513 -0.157539,0.06305 -0.157539,-0.03153 -0.252026,-0.188973 -0.09458,-0.15754 -0.252026,-0.15754 -0.252026,0.03143 0,0.189066 -0.05096,0.271463 -0.239937,0.271463 -0.189066,0 0.03153,0.283553 -0.15754,0.378039 -0.189066,0.09449 -0.441093,0.252027 -0.441093,0.252027 0,0 -0.176883,0.239937 -0.145357,0.42891 0.03153,0.189066 -0.03283,0.374692 -0.03283,0.374692"
   id="path2568"
   style="fill:none;stroke:#0978ab;stroke-width:0.13180704;stroke-linejoin:round;stroke-miterlimit:3.86369991"
   inkscape:connector-curvature="0" /><path
   i:knockout="Off"
   clip-rule="evenodd"
   stroke-miterlimit="3.8637"
   d="m 23.126537,39.870473 c 0,0 0.230916,-0.181255 0.376366,-0.307268 0.14545,-0.126013 0.14545,-0.302897 0.20841,-0.460437 0.06305,-0.157539 0.15754,-0.252026 0.220593,-0.378039 0.06296,-0.126013 0.157447,-0.460437 0.157447,-0.460437 0,0 -0.03153,-0.232589 -0.03153,-0.346606 0,-0.113923 -0.01209,-0.27137 0.176977,-0.36595 0.188973,-0.09449 0.283553,-0.2205 0.378039,-0.28346 0.09449,-0.06305 0.617977,-0.15754 0.807043,-0.15754 0.188973,0 0.460436,0.05087 0.64941,0 0.189066,-0.05087 0.460436,-0.06305 0.555016,0.09449 0.09449,0.15754 0.617976,0.334423 0.775423,0.09449 0.15754,-0.239937 0.295643,-0.126013 0.441093,-0.15754 0.145357,-0.03143 0.176883,0.06305 0.302897,0.126013 0.126013,0.06296 0.189066,-0.113923 0.315079,-0.239936 0.126013,-0.126014 0.42891,-0.126014 0.42891,-0.283553 0,-0.15754 -0.15754,-0.30299 0.03153,-0.42891 0.189066,-0.126014 0.252026,-0.15754 0.346513,-0.252027 0.09458,-0.09449 0.03153,-0.15754 -0.06296,-0.28346 -0.09449,-0.126013 -0.23259,-0.36595 -0.37804,-0.36595 -0.14545,0 -0.617976,-0.09458 -0.74399,-0.126013 -0.126013,-0.03153 -0.20841,-0.09458 -0.271463,-0.189066 -0.06296,-0.09449 -0.283553,-0.36595 -0.346513,-0.460437 -0.06305,-0.09449 -0.09449,-0.09449 -0.09449,-0.252026 0,-0.15754 0.01209,-0.23259 -0.176977,-0.252027 -0.188973,-0.01944 -0.2205,-0.05096 -0.126013,-0.176976 0.09458,-0.126013 0.03153,-0.252027 0,-0.346513 -0.03153,-0.09449 0.20841,-0.189067 0.397476,-0.03153 0.189067,0.15754 0.314987,0.239937 0.37804,0 0.06305,-0.239936 0.113923,-0.20841 0.271463,-0.239936 0.157447,-0.03153 0.74399,-0.15754 0.932963,-0.252027 0.189066,-0.09449 0.409566,-0.188973 0.409566,-0.188973 0,0 0.113924,-0.189067 0.334423,-0.189067 0.2205,0 0.429003,0.06305 0.555017,0.06305 0.126013,0 0.283553,-0.04362 0.409473,-0.126014 0.126013,-0.0824 0.239936,-0.113923 0.397476,-0.239936 0.15754,-0.126013 0.252027,-0.0824 0.220593,0.126013 -0.03153,0.20841 0.16963,0.252026 0.314987,0.03153"
   id="path2570"
   style="fill:none;stroke:#0978ab;stroke-width:0.13180704;stroke-linejoin:round;stroke-miterlimit:3.86369991"
   inkscape:connector-curvature="0" /><path
   i:knockout="Off"
   clip-rule="evenodd"
   stroke-miterlimit="3.8637"
   d="m 9.3864458,30.855831 c 0,0 0.2084101,-0.138103 0.06296,-0.314987 -0.1454499,-0.176883 -0.2399366,-0.397476 -0.2399366,-0.397476 0,0 -0.06296,-0.189067 0,-0.283553 0.063053,-0.09449 0.031527,-0.20841 -0.06296,-0.334424 -0.094487,-0.126013 -0.1890663,-0.346513 -0.2204999,-0.440999 -0.031527,-0.09458 -0.06296,-0.239937 0,-0.36595 0.06296,-0.126014 -0.019437,-0.491963 0.2204999,-0.58645 0.2399366,-0.09458 0.3028967,-0.09458 0.3659498,-0.220593 0.06296,-0.126013 0.3149866,-0.252026 0.3149866,-0.252026 0,0 0.094487,-0.20841 0.1575398,-0.36595 0.063053,-0.15754 0.050964,-0.15754 0.2714636,-0.15754 0.220499,0 0.295642,0.07514 0.440999,0.189066 0.14545,0.113924 0.20841,0.113924 0.491963,0.113924 0.283553,0 0.334424,0.07505 0.491963,-0.0824 0.15754,-0.15754 0.188974,-0.113924 0.314987,0 0.126013,0.113923 0.31508,-0.09458 0.31508,-0.09458 0,0 0.20841,-0.188973 0.42891,-0.126013 0.220499,0.06305 0.365949,0.06305 0.429003,-0.06296 0.06305,-0.126013 0.09449,-0.189066 0.252026,-0.252027 0.15754,-0.06305 0.03153,-0.113923 0.09449,-0.271463 0.06296,-0.15754 0.09449,-0.472526 -0.06296,-0.346513 -0.157447,0.126013 -0.23259,0 -0.346514,-0.09449 -0.113923,-0.09458 -0.290806,-0.208503 -0.05087,-0.334516 0.239937,-0.126013 0.334423,-0.126013 0.239937,-0.252026 -0.09449,-0.126013 -0.03153,-0.27137 -0.03153,-0.397384 0,-0.126013 -0.239936,-0.283553 -0.334423,-0.378039 -0.09449,-0.09449 -0.188973,-0.271371 -0.2205,-0.397384 -0.03153,-0.126013 -0.106576,-0.661592 -0.346513,-0.535579 -0.239937,0.126013 -0.605887,0.315079 -0.826386,0.2205"
   id="path2572"
   style="fill:none;stroke:#0978ab;stroke-width:0.13180704;stroke-linejoin:round;stroke-miterlimit:3.86369991"
   inkscape:connector-curvature="0" /><path
   i:knockout="Off"
   clip-rule="evenodd"
   stroke-miterlimit="3.8637"
   d="m 58.654176,45.772076 c 0,0 0.182091,-0.09951 0.213618,-0.225521 0.03153,-0.126014 0.106576,-0.15754 0.283553,-0.189067 0.176883,-0.03153 0.20841,0 0.397383,-0.03153 0.189067,-0.03143 0.37804,-0.113924 0.37804,-0.113924 0,0 0.20841,-0.315079 0.239937,-0.409566 0.03153,-0.09449 0.169629,-0.30299 0.378039,-0.334423 0.20841,-0.03153 0.617976,-0.252027 0.617976,-0.252027 l 0.554924,-0.283553 c 0,0 0.201156,0.05087 0.346606,-0.06305 0.145357,-0.113923 0.145357,-0.239936 0.145357,-0.36595 0,-0.126013 -0.01934,-1.330439 -0.05087,-1.519412 -0.03153,-0.189066 -0.189066,-0.68103 -0.189066,-0.775516 0,-0.09458 0,-0.334424 -0.189066,-0.460437 -0.188974,-0.126013 -0.126013,-0.283553 -0.03153,-0.378039 0.09458,-0.09449 0.126013,-0.239937 0.189067,-0.334424 0.06296,-0.09458 0.09449,-0.220593 0,-0.378039 -0.09449,-0.157447 -0.37804,-0.36595 -0.37804,-0.58645 0,-0.2205 -0.05096,-0.453183 -0.145357,-0.504053 -0.09458,-0.05087 -0.15754,-0.239937 -0.15754,-0.397476 0,-0.157447 -0.06296,-0.20841 -0.2205,-0.36595 -0.157447,-0.15754 -0.157447,-0.31508 -0.157447,-0.47262 0,-0.157539 -0.01209,-0.271463 -0.157539,-0.302896 -0.145357,-0.03153 -0.27137,-0.15754 -0.302897,-0.31508 -0.03143,-0.15754 -0.03143,-0.397383 -0.188973,-0.460436 -0.15754,-0.06305 -0.397477,-0.252027 -0.491963,-0.31508 -0.09449,-0.06296 -0.126014,-0.201156 -0.220593,-0.283553 -0.09449,-0.0824 -0.23259,-0.176884 -0.283553,-0.302897 -0.05087,-0.126013 -0.145357,-0.264116 -0.176884,-0.409566 -0.03153,-0.145357 -0.04362,-0.460436 0.176884,-0.554923 0.220593,-0.09449 0.630066,-0.189066 0.630066,-0.189066 0,0 0.58645,-0.302897 0.680936,-0.460437 0.09458,-0.15754 0.15754,-0.201156 0.15754,-0.346513 0,-0.14545 -0.106577,-0.271463 0.176976,-0.271463 0.28346,0 0.377947,-0.03153 0.377947,-0.189067 0,-0.157446 -0.01209,-0.42891 0.20841,-0.491963 0.220593,-0.06305 0.31508,-0.169629 0.37804,-0.378039 0.06296,-0.20841 0.03153,-0.30299 0.03153,-0.429003 0,-0.126014 -0.03153,-0.2205 0,-0.346513 0.03143,-0.126014 0.03143,-0.30299 -0.189066,-0.429003 -0.220593,-0.126014 -0.302897,-0.302897 -0.397476,-0.491963 -0.09449,-0.189067 -0.239937,-0.346607 0,-0.346607 0.239936,0 0.271463,-0.09449 0.271463,-0.220499 0,-0.126014 -0.145357,-0.30299 -0.145357,-0.30299"
   id="path2574"
   style="fill:none;stroke:#0978ab;stroke-width:0.13180704;stroke-linejoin:round;stroke-miterlimit:3.86369991"
   inkscape:connector-curvature="0" /><path
   i:knockout="Off"
   clip-rule="evenodd"
   stroke-miterlimit="3.8637"
   d="m 71.736116,35.685718 c 0,0 -0.06305,-0.334424 -0.252027,-0.208411 -0.188973,0.126014 -0.295643,0.06305 -0.37804,-0.06296 -0.0824,-0.126013 -0.0824,-0.252026 -0.334423,-0.252026 -0.252026,0 -0.358603,0.01944 -0.37804,-0.157447 -0.01934,-0.176883 -0.113923,-0.290807 -0.239936,-0.20841 -0.126013,0.0824 -0.06305,-0.252026 -0.252027,-0.252026 -0.188973,0 -0.176883,-0.09458 -0.334423,-0.220593 -0.15754,-0.126013 -0.220593,-0.176884 -0.252026,-0.302897 -0.03153,-0.126013 -0.06305,-0.15754 -0.189067,-0.15754 -0.126013,0 -0.157539,-0.126013 -0.189066,-0.2205 -0.03153,-0.09449 -0.01934,-0.239936 -0.113923,-0.302896 -0.09458,-0.06305 -0.47262,-0.15754 -0.409567,-0.37804 0.06305,-0.2205 0.09458,-0.36595 0,-0.460437 -0.09449,-0.09449 -0.27137,-0.283553 -0.27137,-0.440999 0,-0.15754 -0.09449,-0.176977 -0.15754,-0.334517 -0.06296,-0.157446 -0.176883,-0.567013 0.06305,-0.378039 0.239937,0.189066 0.491964,0.346606 0.52349,0.189066 0.03143,-0.15754 -0.05096,-0.189066 0.12592,-0.283553 0.176977,-0.09449 0.283553,-0.334423 0.09458,-0.491963 -0.189066,-0.15754 -0.283553,-0.36595 -0.15754,-0.460437 0.126013,-0.09449 0.189067,-0.220499 0.189067,-0.409566 0,-0.189066 0.03153,-0.491963 0.03153,-0.58645 0,-0.09458 -0.138103,-0.283553 0.113924,-0.283553 0.252026,0 0.378039,-0.01944 0.378039,-0.20841 0,-0.189066 0.01209,-0.441092 0.220593,-0.504053 0.20841,-0.06305 0.408357,-0.239285 0.408357,-0.239285"
   id="path2576"
   style="fill:none;stroke:#0978ab;stroke-width:0.13180704;stroke-linejoin:round;stroke-miterlimit:3.86369991"
   inkscape:connector-curvature="0" /><path
   i:knockout="Off"
   clip-rule="evenodd"
   stroke-miterlimit="3.8637"
   d="m 79.384514,39.342705 c 0,0 -0.126013,0.188973 -0.03153,0.314987 0.09458,0.126013 0.09458,0.169629 0.03153,0.315079 -0.06305,0.145357 -0.15754,0.36595 0.03153,0.58645 0.188974,0.220593 0.252027,0.36595 0.252027,0.36595 0,0 0,0.2205 0.03153,0.315079 0.03153,0.09449 0.06296,0.27137 0.188974,0.334424 0.126013,0.06296 0.36595,0.126013 0.36595,0.346513 0,0.2205 0.03153,0.302896 0.189066,0.36595 0.157447,0.06296 0.460436,0.157539 0.617976,0.157539 0.15754,0 0.220593,0.03153 0.283553,0.126014 0.06305,0.09449 0.20841,0.220499 0.397477,0.09449 0.189066,-0.126013 0.453182,-0.188973 0.504052,0.03153 0.05087,0.2205 0.302897,0.680936 0.523397,0.743989 0.220593,0.06296 0.239937,0.138103 0.302897,0.252027 0.06305,0.113923 0.15754,0.145357 0.315079,0.145357 0.15754,0 0.201157,0.189066 0.37804,0.189066 0.176884,0 0.334423,0.09449 0.429003,0.2205 0.09449,0.126013 0.176884,0.334423 0.36595,0.397476 0.189066,0.06305 0.346606,0.15754 0.441093,0.283553 0.09449,0.126014 0.189066,0.31508 0.189066,0.31508 0,0 0.302897,0.145357 0.302897,0.27137 0,0.126013 0.06296,0.295643 0.189066,0.409566 0.12592,0.113924 0.188973,0.302897 0.188973,0.302897 l -0.01534,0.403335"
   id="path2578"
   style="fill:none;stroke:#0978ab;stroke-width:0.13180704;stroke-linejoin:round;stroke-miterlimit:3.86369991"
   inkscape:connector-curvature="0" /><path
   i:knockout="Off"
   clip-rule="evenodd"
   stroke-miterlimit="3.8637"
   d="m 87.536872,40.338721 c 0,0 0.243006,-0.371716 0.153076,-0.510563 -0.09002,-0.13894 -0.01488,-0.441837 -0.203946,-0.536323 -0.189067,-0.09458 -0.314987,-0.189067 -0.409567,-0.252027 -0.09449,-0.06296 -0.126013,-0.126013 -0.188973,-0.252026 -0.06305,-0.126013 -0.113923,-0.188973 -0.271463,-0.188973 -0.15754,0 -0.2205,-0.01944 -0.2205,-0.208411 0,-0.189066 -0.06305,-0.189066 -0.220593,-0.220592 -0.15754,-0.03153 -0.554923,-0.334424 -0.649503,-0.36595 -0.09449,-0.03153 -0.157446,-0.06305 -0.157446,-0.252027 0,-0.188973 -0.113924,-0.252026 -0.271464,-0.28346 -0.157446,-0.03153 -0.252026,-0.239936 -0.252026,-0.36595 0,-0.126013 -0.06305,-0.567106 -0.06305,-0.567106 0,0 -0.106577,-0.239936 -0.252027,-0.271463 -0.145357,-0.03143 -0.239936,-0.138103 -0.145357,-0.314986 0.09458,-0.176884 0.09449,-0.36595 0.06305,-0.52349 -0.03153,-0.15754 -0.06305,-0.42891 -0.06305,-0.42891 0,0 -0.09449,-0.126013 -0.09449,-0.252026 0,-0.126014 -0.06305,-0.252027 -0.252027,-0.252027 -0.188973,0 -0.42891,-0.03153 -0.554923,-0.03153 -0.126013,0 -0.283553,-0.0824 -0.15754,-0.30299 0.126014,-0.2205 0.126014,-0.358603 0,-0.53558 -0.126013,-0.176883 -0.27137,-0.113923 -0.334423,-0.20841 -0.06305,-0.09449 -0.126013,-0.2205 -0.126013,-0.2205 0,0 0.06305,-0.239936 -0.126013,-0.397383 -0.189067,-0.15754 -0.504053,-0.09458 -0.409567,-0.315079 0.09458,-0.2205 0,-0.42891 0,-0.42891 L 82.29993,31.59517"
   id="path2580"
   style="fill:none;stroke:#0978ab;stroke-width:0.13180704;stroke-linejoin:round;stroke-miterlimit:3.86369991"
   inkscape:connector-curvature="0" /><path
   i:knockout="Off"
   clip-rule="evenodd"
   stroke-miterlimit="3.8637"
   d="m 78.27662,47.041695 c 0,0 -0.06501,-0.404545 0.06101,-0.562084 0.126013,-0.15754 0.126013,-0.264117 0.157539,-0.441 0.03153,-0.176977 -0.04362,-0.429003 0.145357,-0.46053 0.188974,-0.03143 0.346606,-0.145357 0.252027,-0.36595 -0.09449,-0.220593 -0.157447,-0.586542 -0.157447,-0.775516 0,-0.189066 0.05087,-0.189066 -0.09458,-0.315079 -0.145357,-0.126013 -0.176883,-0.138103 -0.239936,-0.252027 -0.06296,-0.113923 -0.06296,-0.176883 -0.252027,-0.176883 -0.188973,0 -0.315079,-0.03153 -0.315079,-0.2205 0,-0.189066 -0.06296,-0.36595 0.03153,-0.491963 0.09458,-0.126013 0.271463,-0.283553 0.06305,-0.47262 -0.20841,-0.188973 -0.302989,-0.239936 -0.302989,-0.397383 0,-0.157447 -0.118109,-0.443697 -0.118109,-0.443697 0,0 -0.07086,-0.07263 -0.186648,-0.165258 -0.115783,-0.09263 -0.138847,-0.208317 -0.138847,-0.300944 0,-0.09263 -0.09588,-0.185161 -0.188416,-0.254631 -0.09263,-0.06947 -0.277787,-0.257885 -0.277787,-0.373575 0,-0.115784 0.297689,-0.277787 0.324008,-0.347257 0.02641,-0.06947 0.02316,-0.142102 -0.09253,-0.234729 -0.115783,-0.09263 -0.370414,-0.208317 -0.439791,-0.277787 -0.06947,-0.06947 -0.256676,-0.159772 -0.279833,-0.255654 -0.02316,-0.09588 -0.232682,-0.209526 -0.278996,-0.278996 l -0.09458,-0.012 c 0,0 -0.239937,0.03153 -0.36595,-0.157447 -0.126014,-0.189067 -0.252027,0 -0.37804,-0.189067 -0.12592,-0.189066 -0.252026,-0.14545 -0.188973,-0.334423 0.06305,-0.189066 -0.04362,-0.315079 -0.09449,-0.441093 -0.05087,-0.126013 -0.113923,-0.302896 -0.20841,-0.460436 -0.09449,-0.15754 -0.252027,-0.37804 -0.03153,-0.314987 0.220593,0.06296 0.334424,0.113924 0.397477,-0.06305 0.06296,-0.176883 0.188973,-0.126013 0.314986,-0.03153 0.126014,0.09458 0.36595,0.220499 0.36595,0.220499"
   id="path2582"
   style="fill:none;stroke:#0978ab;stroke-width:0.13180704;stroke-linejoin:round;stroke-miterlimit:3.86369991"
   inkscape:connector-curvature="0" /><path
   i:knockout="Off"
   clip-rule="evenodd"
   stroke-miterlimit="3.8637"
   d="m 28.030544,23.2052 c 0,0 0.0465,0.185998 0.255747,0.185998 0.209247,0 0.395244,-0.02325 0.511492,0.06975 0.116249,0.093 0.209247,0.06975 0.348745,0 0.139499,-0.06975 0.441744,-0.093 0.627742,-0.06975 0.185997,0.02325 0.371994,0.116248 0.511492,0 0.139498,-0.116249 0.06975,-0.348745 -0.0465,-0.488243 -0.116248,-0.139498 -0.185997,-0.278996 -0.185997,-0.418494 0,-0.139499 -0.02325,-0.348746 0,-0.441744 0.02325,-0.093 -0.0465,-0.278996 0.162747,-0.278996 0.209247,0 0.278996,-0.06975 0.371995,-0.116249 0.093,-0.0465 0.255747,0.02325 0.232497,0.185998 -0.02325,0.162747 -0.139498,0.209247 0.06975,0.185997 0.209247,-0.02325 0.302246,0.116248 0.395244,0 0.093,-0.116248 0.464994,-0.534742 0.464994,-0.534742 0,0 0,-0.232497 0.209247,-0.395245 0.209247,-0.162748 0.139498,-0.325495 0.255746,-0.395244 0.116249,-0.06975 0.116249,-0.093 0.02325,-0.232497 -0.093,-0.139498 -0.185997,-0.302246 -0.06975,-0.441744 0.116248,-0.139498 0.162748,-0.209247 0.0465,-0.325495 -0.116248,-0.116249 -0.325495,-0.325496 -0.325495,-0.325496 0,0 -0.06975,-0.162747 -0.06975,-0.278996 0,-0.116248 0.06975,-0.348745 0.06975,-0.348745 l 0.178557,-0.448625"
   id="path2586"
   style="fill:none;stroke:#0978ab;stroke-width:0.13180704;stroke-linejoin:round;stroke-miterlimit:3.86369991"
   inkscape:connector-curvature="0" /><path
   i:knockout="Off"
   clip-rule="evenodd"
   stroke-miterlimit="3.8637"
   d="m 24.845339,22.763457 c 0,0 -0.093,-0.929987 -0.093,-1.069485 0,-0.139498 -0.093,-0.232497 -0.116248,-0.371995 -0.02325,-0.139498 -0.06975,-0.395245 -0.209247,-0.464994 -0.139498,-0.06975 -0.418494,-0.185997 -0.581242,-0.185997 -0.162748,0 -0.093,-0.02325 -0.348745,-0.02325 -0.255746,0 -0.232497,-0.06975 -0.255746,-0.185997 -0.02325,-0.116248 -0.06975,-0.185997 -0.185998,-0.209247 -0.116248,-0.02325 -0.209247,-0.06975 -0.325495,-0.162748 -0.116249,-0.093 -0.162748,-0.06975 -0.232497,0.0465 -0.06975,0.116248 -0.162748,0.162747 -0.255746,0 -0.093,-0.162748 -0.209246,-0.162748 -0.325495,-0.278997 -0.116248,-0.116248 -0.232496,-0.093 -0.371994,-0.162747 -0.139498,-0.06975 -0.255747,-0.116249 -0.348746,-0.0465 -0.093,0.06975 -0.441743,0.209246 -0.441743,0.209246 0,0 -0.278996,0.06975 -0.325496,-0.0465 -0.0465,-0.116248 -0.162747,-0.232496 -0.209247,-0.325495 -0.0465,-0.093 -0.255746,-0.255746 -0.255746,-0.255746 l -0.325496,-0.162748"
   id="path2588"
   style="fill:none;stroke:#0978ab;stroke-width:0.13180704;stroke-linejoin:round;stroke-miterlimit:3.86369991"
   inkscape:connector-curvature="0" /><path
   i:knockout="Off"
   clip-rule="evenodd"
   stroke-miterlimit="3.8637"
   d="m 84.829494,40.665704 c 0,0 -0.232497,0.813739 -0.278996,0.976487 -0.0465,0.162747 -0.06975,0.395244 -0.06975,0.395244 0,0 -0.162748,0.02325 0,0.185997 0.162748,0.162748 0.185997,0.325496 0.278996,0.441744 0.093,0.116249 0.185997,0.255747 0.441744,0.162748 0.255746,-0.093 0.395244,-0.162748 0.627741,-0.093 0.232497,0.06975 0.302246,0.06975 0.464993,0.162748 0.162748,0.093 0.581242,0.255746 0.860238,0.302246 0.278996,0.0465 0.348745,0.0465 0.488243,0.0465 0.139499,0 0.139499,-0.02325 0.325496,0.093 0.185997,0.116248 0.464993,0.116248 0.743989,0.06975 0.278996,-0.0465 0.325496,-0.06975 0.441744,0.06975 0.116249,0.139498 0.255747,0.255746 0.418494,0.209247 0.162748,-0.0465 0.674241,-0.0465 0.767239,-0.0465 0.093,0 0.185998,0 0.278997,-0.139498 0.093,-0.139498 0.162747,-0.278996 0.418494,-0.278996 0.255746,0 0.232496,-0.185997 0.371994,-0.116248 0.139498,0.06975 0.209247,0.278996 0.395245,0.255746 0.185997,-0.02325 0.464993,-0.162747 0.557992,-0.02325 0.093,0.139498 0.0465,0.255746 0.302246,0.232496 0.255746,-0.02325 0.325495,0.0465 0.395244,0.162748 0.06975,0.116249 0.441744,0.093 0.534743,0.0465 0.093,-0.0465 0.139498,-0.116249 0.348745,0.02325 0.209247,0.139498 0.395244,0.06975 0.418494,-0.116248"
   id="path2590"
   style="fill:none;stroke:#0978ab;stroke-width:0.13180704;stroke-linejoin:round;stroke-miterlimit:3.86369991"
   inkscape:connector-curvature="0" /><path
   i:knockout="Off"
   clip-rule="evenodd"
   stroke-miterlimit="3.8637"
   d="m 63.277048,29.226866 c 0,0 0.162747,0.302245 0.302245,0.395244 0.139498,0.093 0.162748,0.162748 0.209247,0.302246 0.0465,0.139498 0.278997,0.209247 0.395245,0.116248 0.116248,-0.093 0.371995,-0.06975 0.511493,-0.02325 0.139498,0.0465 0.209247,0.116249 0.371994,0.093 0.162748,-0.02325 0.162748,0.162748 0.348746,0.139498 0.185997,-0.02325 0.278996,0 0.371994,0.116248 0.093,0.116249 0.06975,0.232497 0.255747,0.348746 0.185997,0.116248 0.325495,0.139498 0.325495,0.139498 0,0 0.162748,0.093 0.232497,-0.06975 0.06975,-0.162748 0.255746,-0.185998 0.255746,-0.02325 0,0.162748 0.116249,0.232497 0.209247,0.116248 0.093,-0.116248 0.139498,-0.255746 0.278996,-0.116248 0.139498,0.139498 0.302246,0.209247 0.302246,0.209247 0,0 0.06975,0.093 0.185998,0.06975 0.116248,-0.02325 0.311359,0.126664 0.213803,0.307454"
   id="path2592"
   style="fill:none;stroke:#0978ab;stroke-width:0.13180704;stroke-linejoin:round;stroke-miterlimit:3.86369991"
   inkscape:connector-curvature="0" /><path
   i:knockout="Off"
   clip-rule="evenodd"
   stroke-miterlimit="3.8637"
   d="m 41.778913,37.729364 c 0,0 -0.08156,0.308662 -0.08156,0.417471 0,0.108808 -0.108809,0.254165 0.08156,0.417471 0.190461,0.163213 0.281414,0.21771 0.363066,0.29927 0.08156,0.08165 0.244866,0.21771 0.244866,0.326518 0,0.108809 0.108808,0.471876 0.108808,0.471876 l 0.272115,0.163212 c 0,0 0.390315,-0.09095 0.499124,0.08165 l 0.526837,0.991273 0.116249,0.650991 c 0,0 -0.116249,0.209247 -0.232497,0.302246 -0.116249,0.093 -0.093,0.185997 -0.093,0.278996 0,0.093 0,0.395244 0.06975,0.604491 0.06975,0.209247 0.209247,0.255747 0.325496,0.441744 0.116248,0.185997 0.209247,0.604492 0.209247,0.74399 0,0.139498 0.06975,0.185997 0.232496,0.209247 0.162748,0.02325 0.162748,0.139498 0.162748,0.302245 0,0.162748 0.0465,0.255747 0.278996,0.488243 0.196134,0.196135 0.160609,0.557807 0.144706,0.666057 0,0 0.19167,0.245145 0.218826,0.381202 0.02725,0.136057 0.08165,0.199761 0.21771,0.281414 0.136057,0.08165 0,0.272114 -0.108809,0.380922 -0.108808,0.108809 -0.08156,0.335819 -0.02716,0.52628 0.0544,0.190461 0,0.244866 -0.21771,0.272114 -0.217617,0.02716 0,0.22701 0.190461,0.281414 0.190462,0.0544 0.08156,0.190462 -0.08165,0.29927 -0.163212,0.108808 -0.254165,0.136057 -0.444719,0.136057 -0.190462,0 -0.205249,0.147031 -0.205249,0.147031"
   id="path2594"
   style="fill:none;stroke:#0978ab;stroke-width:0.13180704;stroke-linejoin:round;stroke-miterlimit:3.86369991"
   inkscape:connector-curvature="0" /><g
   id="g4177"
   transform="translate(0,10)"
   style="stroke:#ffffff;stroke-opacity:1"><path
     inkscape:connector-curvature="0"
     style="fill:none;stroke:#ffffff;stroke-width:0.15817216000000001;stroke-linejoin:round;stroke-miterlimit:3.86369990999999979;stroke-opacity:1"
     id="path2552"
     d="m 21.543886,20.993841 c 0,0 -0.139498,-0.162748 -0.185998,-0.278996 -0.0465,-0.116249 -0.0465,-0.325496 -0.0465,-0.325496 0,0 0.02325,-0.139498 0.116248,-0.185997 0.093,-0.0465 -0.02325,-0.162748 0.255747,-0.139498 0.278996,0.02325 0.418494,-0.06975 0.418494,-0.06975 0,0 0.06975,-0.093 0,-0.255747 -0.06975,-0.162747 -0.0465,-0.209247 -0.093,-0.395244 -0.0465,-0.185997 -0.093,-0.441744 -0.093,-0.557992 0,-0.116249 0,-0.302246 -0.139498,-0.371995 -0.139498,-0.06975 -0.232496,-0.162748 -0.232496,-0.325495 0,-0.162748 0.116248,-0.232497 -0.116249,-0.232497 -0.232497,0 -0.255746,-0.0465 -0.255746,-0.162748 0,-0.116248 -0.162748,-0.0465 -0.185998,-0.185997 -0.02325,-0.139498 0,-0.255747 -0.139498,-0.278996 -0.139498,-0.02325 -0.348745,-0.06975 -0.348745,-0.255747 0,-0.185997 0,-0.581242 0,-0.581242 0,0 0.02325,-0.185997 -0.093,-0.348745 -0.116249,-0.162747 -0.278996,-0.232496 -0.278996,-0.395244 0,-0.162748 -0.02325,-0.488243 -0.232497,-0.511493 -0.209247,-0.02325 -0.557992,-0.02325 -0.557992,-0.02325 0,0 -0.185998,-0.232497 -0.255747,-0.348746 -0.06975,-0.116248 0,-0.348745 -0.232496,-0.278996 -0.232497,0.06975 -0.348746,-0.139498 -0.139498,-0.232496 0.209247,-0.093 0.371994,-0.302246 0.139498,-0.302246 -0.232497,0 -0.348746,-0.093 -0.325496,-0.278996 0.02325,-0.185998 0.116248,-0.232497 0,-0.371995 -0.116248,-0.139498 -0.116248,-0.116248 -0.325495,-0.302246 -0.209247,-0.185997 -0.232497,-0.232496 -0.232497,-0.395244 0,-0.162748 -0.02325,-0.395245 -0.093,-0.581242 -0.06975,-0.185997 -0.0465,-0.302246 -0.185997,-0.232497 -0.139498,0.06975 -0.278996,0.06975 -0.255746,-0.06975 0.02325,-0.139498 0.06975,-0.185997 -0.116249,-0.278996 -0.185997,-0.093 -0.185997,-0.116248 -0.278996,-0.139498 -0.093,-0.02325 -0.278996,-0.139498 -0.278996,-0.139498 0,0 -0.06975,-0.162748 0,-0.255746 0.06975,-0.093 0.255746,-0.185998 0.255746,-0.325496 0,-0.139498 0.01553,-0.519769 0.01553,-0.519769"
     stroke-miterlimit="3.8637"
     clip-rule="evenodd"
     i:knockout="Off" /><line
     style="fill:none;stroke:#ffffff;stroke-width:0.15817216000000001;stroke-linejoin:round;stroke-miterlimit:3.86369990999999979;stroke-opacity:1"
     id="line2554"
     y2="19.203617"
     x2="26.635563"
     y1="7.2765336"
     x1="28.23979"
     stroke-miterlimit="3.8637"
     clip-rule="evenodd"
     i:knockout="Off" /><polyline
     transform="matrix(0.09299869,0,0,0.09299869,-5.4926006,-1.464227)"
     style="fill:none;stroke:#ffffff;stroke-width:1.70079994000000001;stroke-linejoin:round;stroke-miterlimit:3.86369990999999979;stroke-opacity:1"
     id="polyline2556"
     points="       439.41,413.734 439.719,410.738 443.219,410.988 438.719,388.488 431.969,345.488 414.469,279.488 411.469,230.488 "
     stroke-miterlimit="3.8637"
     clip-rule="evenodd"
     i:knockout="Off" /><path
     inkscape:connector-curvature="0"
     style="fill:none;stroke:#ffffff;stroke-width:0.15817216000000001;stroke-linejoin:round;stroke-miterlimit:3.86369990999999979;stroke-opacity:1"
     id="path2558"
     d="m 54.603897,36.15365 c 0,0 -0.277787,-0.02641 -0.13894,-0.234729 0.138847,-0.208317 0.06947,-0.300943 0,-0.37032 -0.06947,-0.06938 -0.04631,-0.234729 -0.04631,-0.419889 0,-0.185161 -0.02316,-0.393478 0,-0.486198 0.02316,-0.09253 0.02316,-0.234728 -0.09263,-0.443045 -0.115691,-0.208317 -0.09263,-0.396826 -0.09263,-0.489359 0,-0.09253 0.06947,-0.162097 0.115783,-0.231474 0.04631,-0.06947 0.185161,-0.08928 0.04631,-0.300944 -0.13894,-0.211572 -0.628299,-1.279662 -0.697676,-1.372196 -0.06938,-0.09253 -0.162004,-0.257885 -0.162004,-0.396732 0,-0.13894 -0.162004,-0.790303 -0.162004,-0.92915 0,-0.13894 0.04631,-0.512516 0.162004,-0.628299 0.115783,-0.11569 0.09263,-0.231474 0.09263,-0.370321 0,-0.138847 -0.02316,-0.234729 -0.09263,-0.327355 -0.06947,-0.09263 -0.06947,-0.13894 -0.06947,-0.254631 0,-0.11569 0.02316,-0.25463 0.02316,-0.25463 0,0 -0.304199,-0.02641 -0.327356,-0.234729 -0.02316,-0.208317 0.02316,-0.370321 -0.18516,-0.347257 -0.208317,0.02316 -0.489359,0.04957 -0.489359,-0.162004 0,-0.211572 -0.04957,-0.396732 0.02316,-0.512515 0.07272,-0.115784 0.09904,-0.234729 0.04957,-0.373669 -0.04948,-0.13894 -0.115784,-0.393478 0.04631,-0.509261 0.162004,-0.115783 0.208317,-0.419889 0.06947,-0.466202 -0.138847,-0.04631 -0.18516,-0.115784 -0.04631,-0.231474 0.138847,-0.115784 0.25463,-0.281042 0.162003,-0.466203 -0.09263,-0.18516 -1.464822,-3.300058 -1.464822,-3.300058"
     stroke-miterlimit="3.8637"
     clip-rule="evenodd"
     i:knockout="Off" /><path
     inkscape:connector-curvature="0"
     style="fill:none;stroke:#ffffff;stroke-width:0.15817216000000001;stroke-linejoin:round;stroke-miterlimit:3.86369990999999979;stroke-opacity:1"
     id="path2560"
     d="m 57.76827,11.648309 c 0,0 0.185161,0.324101 0.277787,0.439791 0.09263,0.115783 0.115784,0.211572 0.162097,0.304199 0.04631,0.09263 0.18516,0.370321 0.162004,0.532417 -0.02316,0.162097 0.04631,0.234729 0.09263,0.396826 0.04631,0.162003 -0.02316,0.347164 -0.138848,0.535672 -0.115783,0.188416 0,0.300944 0.211572,0.486104 0.211573,0.185161 0.162004,0.419889 0.09263,0.558829 -0.06938,0.138941 0,0.327356 0.06947,0.466203 0.06947,0.138847 0.06947,0.231474 0,0.439791 -0.06947,0.208317 0.115784,0.350512 0.300944,0.443045 0.18516,0.09263 0.18516,0.208318 0.162097,0.443139 -0.02316,0.234729 0.142102,0.370321 0.304198,0.393478 0.162097,0.02316 0.162097,0.419889 0.162097,0.419889 l 1.094502,1.904613"
     stroke-miterlimit="3.8637"
     clip-rule="evenodd"
     i:knockout="Off" /><line
     style="fill:none;stroke:#ffffff;stroke-width:0.15817216000000001;stroke-linejoin:round;stroke-miterlimit:3.86369990999999979;stroke-opacity:1"
     id="line2562"
     y2="24.527605"
     x2="71.484184"
     y1="18.62191"
     x1="73.854996"
     stroke-miterlimit="3.8637"
     clip-rule="evenodd"
     i:knockout="Off" /><path
     inkscape:connector-curvature="0"
     style="fill:none;stroke:#ffffff;stroke-width:0.15817216000000001;stroke-linejoin:round;stroke-miterlimit:3.86369990999999979;stroke-opacity:1"
     id="path2564"
     d="m 67.557312,31.061414 -0.07086,-0.327356 -0.281042,-0.277787 c 0,0 0.02316,-0.205062 -0.06947,-0.3241 -0.09263,-0.118945 -0.396825,-0.211572 -0.535672,-0.211572 -0.138847,0 -0.509261,-0.06947 -0.509261,-0.06947 0,0 -0.281042,-0.254631 -0.350512,-0.347164 -0.06947,-0.09253 -0.162004,-0.234729 -0.162004,-0.234729 0,0 0,-0.277787 0.04631,-0.393477 0.04631,-0.115784 0.09263,-0.836617 0.09263,-0.836617 0,0 0.234729,-0.211572 0.281042,-0.350512 l -0.466202,-0.25463 0.162004,-0.396732 0.46769,0.165258 0.276299,-0.165258 c 0,0 0.04631,-0.463041 0.09263,-0.578731 0.04631,-0.115691 0.188415,-0.327356 0.188415,-0.327356 l 0,-0.535672 -0.512516,-0.231474 c 0,0 0.300944,-0.350512 0.300944,-0.535672 0,-0.185161 -0.02316,-1.091154 -0.02316,-1.091154"
     stroke-miterlimit="3.8637"
     clip-rule="evenodd"
     i:knockout="Off" /><polyline
     transform="matrix(0.09299869,0,0,0.09299869,-5.4926006,-1.464227)"
     style="fill:none;stroke:#ffffff;stroke-width:1.70079994000000001;stroke-linejoin:round;stroke-miterlimit:3.86369990999999979;stroke-opacity:1"
     id="polyline2566"
     points="       796.714,359.983 799.985,356.499 805.212,358.988 807.736,355.005 816.483,355.254 817.727,357.743 825.727,357.992        827.469,356.997 843.719,362.721 843.968,367.734 840.234,371.005 "
     stroke-miterlimit="3.8637"
     clip-rule="evenodd"
     i:knockout="Off" /><path
     inkscape:connector-curvature="0"
     style="fill:none;stroke:#ffffff;stroke-width:0.15817216000000001;stroke-linejoin:round;stroke-miterlimit:3.86369990999999979;stroke-opacity:1"
     id="path2584"
     d="m 75.45225,33.933678 0.171769,-0.200412 0.115783,-0.393477 0.651363,-0.254631 -0.06947,-0.350512 -0.165259,-0.416634 -0.115783,-0.767146 0.281042,0.18516 0.97909,-0.05747 c -0.01535,-0.01293 -0.0451,-0.06045 -0.06268,-0.07449 -0.157726,-0.126199 -0.188229,-0.287366 -0.188229,-0.403707 0,-0.08872 -0.466203,-0.336562 -0.466203,-0.628206 0,-0.18265 0.224871,-0.292202 0.336284,-0.405196 -0.03636,-0.12685 -0.758405,-0.421191 -0.820807,-0.679262 -0.05812,-0.08984 -0.195855,-0.139777 -0.260582,-0.236868 l 0.110947,-0.073 c -0.04631,-0.06947 0.08788,-0.27881 0.230079,-0.371436 0.142195,-0.09263 0.165259,-0.135592 0.211572,-0.231474 0.04631,-0.09588 0.3241,-0.234729 0.3241,-0.234729 l -0.300943,-0.370414 c 0,0 0,-0.535672 0,-0.628206 0,-0.09253 0.02316,-0.350512 0.02316,-0.350512 l 0.115691,-0.3241"
     stroke-miterlimit="3.8637"
     clip-rule="evenodd"
     i:knockout="Off" /><path
     inkscape:connector-curvature="0"
     style="fill:none;stroke:#ffffff;stroke-width:0.15817216000000001;stroke-linejoin:round;stroke-miterlimit:3.86369990999999979;stroke-opacity:1"
     id="path2596"
     d="m 42.933584,37.431359 0.116249,-0.302246 0.348745,0 0.511493,0.093 0.464993,-0.093 0.371995,-0.767239 0.225615,-0.639087 -0.09337,-0.155401 c 0.1036,-0.705488 -0.426585,-0.605235 -0.426585,-1.135235 0,-0.04287 0.0044,-0.115039 -0.01144,-0.155772 -0.191019,-0.139591 -0.383806,-0.0058 -0.383806,-0.35572 0,-0.326984 -0.133267,-0.634438 -0.353116,-0.865353 -0.238913,-0.250911 -0.251375,-0.597145 -0.251375,-0.924872 0,-0.366136 0.143404,-0.319823 0.318985,-0.606166 l -0.10453,-0.585426 -0.475316,-0.997318 0.118759,-0.05664 -0.702791,-1.474401 -1.557728,-3.161955 -1.883224,-3.696698 1.557728,-7.13765 0.418494,-1.743725 c 0,0 -0.162747,-0.139498 -0.185997,-0.255747 -0.02325,-0.116248 -0.0465,-0.348745 0,-0.488243 0.0465,-0.139498 0.116248,-0.325495 0.116248,-0.464993 0,-0.139498 0.02325,-0.302246 -0.06975,-0.418494 -0.093,-0.116249 -0.06975,-0.395245 0,-0.488243 0.06975,-0.093 0.093,-0.209247 -0.06975,-0.302246 -0.162747,-0.093 -0.348745,-0.185997 -0.348745,-0.185997 0,0 -0.302245,-0.1162488 -0.209247,-0.2789965 0.093,-0.1627477 0.17893,-0.5810558 0.17893,-0.5810558"
     stroke-miterlimit="3.8637"
     clip-rule="evenodd"
     i:knockout="Off" /><path
     inkscape:connector-curvature="0"
     style="fill:none;stroke:#ffffff;stroke-width:0.15817216000000001;stroke-linejoin:round;stroke-miterlimit:3.86369990999999979;stroke-opacity:1"
     id="path2598"
     d="m 20.49765,16.390405 -0.836988,0 -1.766975,-0.162747 -0.860238,-0.02325 -1.022985,-0.162748 -3.115457,-1.720475 -0.906737,-0.02325 -4.7894324,-0.093 -2.0227215,2.301718 -0.4649934,-0.02325 c 0,0 -0.3022458,0 -0.3952445,-0.0465 -0.092999,-0.0465 -0.3022457,-0.093 -0.3022457,-0.093 0,0 -0.6742405,-0.093 -0.7672392,-0.093 -0.092999,0 -0.3719948,-0.06975 -0.4882431,-0.06975 -0.1162484,0 -0.6974902,-0.0465 -0.6974902,-0.0465 l -0.3022457,-0.093"
     stroke-miterlimit="3.8637"
     clip-rule="evenodd"
     i:knockout="Off" /><path
     inkscape:connector-curvature="0"
     style="fill:none;stroke:#ffffff;stroke-width:0.15817216000000001;stroke-linejoin:round;stroke-miterlimit:3.86369990999999979;stroke-opacity:1"
     id="path2600"
     d="m 93.114654,30.975762 c 0,0 -0.263186,0.08565 -0.332656,0.08565 -0.06947,0 -0.257885,0.277787 -0.304199,0.347257 -0.04631,0.06947 -0.162003,0.11569 -0.277787,0.09263 -0.115783,-0.02316 -0.651363,-0.09263 -0.651363,-0.09263 L 89.386151,30.82994 c 0,0 -0.393478,-0.257885 -0.535673,-0.373669 -0.142195,-0.115783 -0.370413,-0.18516 -0.57873,-0.18516 -0.208317,0 -0.165259,-0.09263 -0.188416,-0.281042 -0.02316,-0.188415 -0.25463,-0.162004 -0.393477,-0.162004 -0.13894,0 -0.489359,-0.09263 -0.651363,-0.162097 -0.162097,-0.06947 -0.443046,-0.06947 -0.67452,-0.115783 -0.231473,-0.04631 -0.975463,-0.18516 -1.140814,-0.234729 -0.165352,-0.04957 -0.254631,-0.02316 -0.462948,-0.300943 -0.208317,-0.277787 -0.581893,-0.231474 -0.581893,-0.231474 l -0.466295,0.347164 -0.532418,-0.04631 c 0,0 -0.373668,-0.185254 -0.558829,-0.300944 -0.18516,-0.115783 -0.18516,0.09263 -0.231474,0.208317 -0.04631,0.11569 -0.06947,0.162004 -0.211572,0.162004 -0.142102,0 -0.162003,0.02316 -0.208317,0.115783 -0.04631,0.09263 -0.208317,0.142102 -0.393477,0.02316 -0.18516,-0.118946 -0.350512,-0.06947 -0.466202,0.02316 -0.115691,0.09263 -0.138848,0.142102 -0.324008,0.142102 -0.18516,0 -0.257885,0.04631 -0.419982,-0.09263 -0.162004,-0.138847 -0.162004,-0.257886 -0.277787,-0.327356 -0.115783,-0.06947 -0.211572,0.06947 -0.419889,0.06947 -0.208317,0 -0.231474,-0.06947 -0.347164,-0.277787 -0.115784,-0.208317 -0.281042,-0.18516 -0.443139,-0.115783 -0.162004,0.06947 -0.512516,-0.188415 -0.558736,-0.257885 -0.04631,-0.06947 -0.277787,-0.185161 -0.486104,-0.208318 -0.208317,-0.02316 -0.188416,-0.115783 -0.350512,-0.277787 -0.162097,-0.162003 -0.115784,-0.234728 -0.115784,-0.304198 0,-0.06947 0,-0.277787 0,-0.393478 0,-0.11569 -0.06947,-0.162003 -0.162096,-0.211572 -0.09263,-0.04947 -0.350513,-0.208317 -0.48936,-0.25463 -0.13894,-0.04631 -0.13894,-0.13894 -0.231473,-0.254631 -0.09263,-0.115783 -0.234729,-0.02316 -0.373669,-0.02316 -0.138847,0 -0.25463,0.04631 -0.486104,0.06947 -0.231474,0.02316 -0.581893,-0.162004 -0.67452,-0.257886 -0.09263,-0.09579 -0.281042,-0.300943 -0.281042,-0.300943 0,0 -0.09263,0.18516 -0.115783,0.304198 -0.02316,0.118946 -0.06947,0.324008 -0.115784,0.462948 -0.04631,0.13894 -0.277787,0.304199 -0.396825,0.373669 -0.118945,0.06947 -0.324007,0.208317 -0.324007,0.208317 0,0 -0.231474,-0.115784 -0.347164,-0.208317 -0.115784,-0.09263 -0.304199,-0.188416 -0.512516,-0.234729 -0.208317,-0.04631 -0.257886,-0.13894 -0.350512,-0.231474 -0.09263,-0.09253 -0.185161,-0.25463 -0.347164,-0.396825 -0.162097,-0.142102 -0.13894,-0.74399 -0.13894,-0.74399 0,0 0.0033,-0.347164 -0.138847,-0.462947 -0.142102,-0.115784 -0.304199,-0.142102 -0.327356,-0.257886 -0.02316,-0.115783 -0.06947,-0.324007 -0.06947,-0.324007 0,0 0,-0.181999 -0.13894,-0.347257 -0.138847,-0.165259 -0.118945,-0.211572 -0.257885,-0.211572 -0.138847,0 -0.324008,0.162003 -0.416634,0.02316 -0.09263,-0.138847 -0.158842,-0.18516 -0.300944,-0.18516 -0.142102,0 -0.257886,0.04631 -0.350512,-0.02316 -0.09263,-0.06947 -0.251376,-0.251375 -0.324101,-0.347257 -0.07273,-0.09588 -0.257885,-0.327355 -0.350512,-0.396732 -0.09263,-0.06947 -0.228219,-0.162097 -0.370321,-0.185254 -0.142195,-0.02316 -0.350512,-0.115783 -0.443045,-0.02316 -0.09263,0.09263 -0.115784,0.18516 -0.13894,0.300944 -0.02316,0.11569 -0.0199,0.307453 -0.185161,0.234728 -0.165258,-0.07273 -0.512516,-0.350512 -0.651363,-0.466202 -0.138847,-0.115784 -0.188415,-0.185161 -0.304198,-0.13894 -0.115784,0.04631 -0.09263,0.162096 0,0.277787 0.09253,0.11569 0.06947,0.396732 0.09253,0.489359 0.02316,0.09263 0,0.300944 -0.09253,0.300944 -0.09263,0 -0.324101,-0.04631 -0.324101,-0.04631 l -0.443045,-0.04631 c 0,0 -0.254631,-0.18516 -0.393478,-0.300944 -0.13894,-0.115783 -0.162004,-0.165258 -0.396825,0.09263 -0.234729,0.257885 -0.347164,-0.04631 -0.347164,-0.234729 0,-0.188415 -0.162004,-0.416634 -0.257886,-0.532417 -0.09588,-0.115691 -0.231474,-0.211572 -0.416634,-0.257886 -0.18516,-0.04631 -0.257885,-0.162003 -0.257885,-0.277787 0,-0.11569 -0.138847,-0.25463 -0.231474,-0.373668 -0.09263,-0.118946 -0.06947,-0.416635 0.02316,-0.578731 0.09263,-0.162004 -0.138847,-0.211572 -0.162004,-0.373576 -0.02316,-0.162097 -0.13894,-0.3241 -0.254631,-0.39357 -0.115783,-0.06947 -0.419982,-0.396733 -0.512515,-0.512516 -0.09263,-0.115691 -0.138847,-0.350512 -0.185161,-0.466203 -0.04631,-0.11569 -0.350512,-0.393477 -0.512515,-0.555574 -0.162097,-0.162004 -0.300944,-0.142102 -0.396826,-0.07272 -0.09579,0.06947 -1.461567,0.512516 -1.461567,0.512516 l -0.793558,0.443046 -2.787543,1.418509 -2.767641,0.370413 -3.045428,0.396733 -0.535021,0.06882 c 0,0 -0.232497,0.093 -0.325496,0.093 -0.093,0 -0.162748,0 -0.278996,0.06975 -0.116248,0.06975 -0.255746,0.116248 -0.348745,-0.02325 -0.093,-0.139498 -0.395244,-0.162748 -0.395244,-0.162748 l -0.441744,-0.441744 -0.674241,0.302246 -3.278204,-0.67424 -0.627741,-0.511493 c 0,0 -0.185997,-0.02325 -0.325495,0.06975 -0.139498,0.093 -0.371995,0.116248 -0.604492,0.116248 -0.232496,0 -0.325495,0.06975 -0.511492,0.06975 -0.185998,0 -0.348745,0.139498 -0.418494,0.232497 -0.06975,0.093 -0.185998,0.255746 -0.325496,0.255746 -0.139498,0 -0.209247,0.302246 -0.255746,0.395245 -0.0465,0.093 -0.278996,0.139498 -0.604492,0.0465 -0.325495,-0.093 -0.232497,0.0465 -0.325495,0.06975 -0.093,0.02325 -0.278996,0.06975 -0.371995,0 -0.093,-0.06975 -0.255746,-0.116248 -0.348745,-0.162747 -0.093,-0.0465 -0.185997,-0.06975 -0.232497,-0.278997 -0.0465,-0.209247 -0.348745,-0.116248 -0.441744,-0.02325 -0.093,0.093 -0.488243,0 -0.488243,0 l -0.348745,-0.093 c 0,0 -0.116248,-0.093 -0.209247,-0.139498 -0.093,-0.0465 -0.139498,-0.185997 -0.185997,-0.302246 -0.0465,-0.116248 -0.162748,-0.139498 -0.348745,-0.209247 -0.185998,-0.06975 -0.139498,-0.093 -0.185998,-0.278996 -0.0465,-0.185997 -0.139498,-0.255746 -0.302245,-0.302246 -0.162748,-0.0465 -0.395245,-0.209247 -0.511493,-0.325495 -0.116249,-0.116248 -0.488243,-0.185997 -0.650991,-0.162748 -0.162748,0.02325 -0.232497,-0.06975 -0.325495,-0.209247 -0.093,-0.139498 -0.185998,-0.116248 -0.302246,-0.06975 -0.116249,0.0465 -0.255747,0.06975 -0.325496,-0.0465 -0.06975,-0.116248 -0.325495,-0.139498 -0.581241,-0.116248 -0.255747,0.02325 -0.209247,0 -0.418495,-0.0465 -0.209247,-0.0465 -0.302245,0.116249 -0.395244,0.255747 -0.093,0.139498 -0.302246,0.162747 -0.441744,0.0465 -0.139498,-0.116248 -0.302245,0.06975 -0.395244,0.162748 -0.093,0.093 -0.464994,0.255746 -0.464994,0.255746 l -6.137913,-0.767239 -5.091678,1.790225 -1.046236,2.627213 -0.627741,1.557728 -0.488243,1.185733 -0.781468,1.789574"
     stroke-miterlimit="3.8637"
     clip-rule="evenodd"
     i:knockout="Off" /></g><g
   id="g3143"
   transform="matrix(0.88751704,0,0,0.88751704,-19.912539,4.5262926)"><path
     sodipodi:type="arc"
     style="opacity:0.17112301;color:#000000;fill:url(#radialGradient3152);fill-opacity:1;fill-rule:evenodd;stroke:none;stroke-width:1;marker:none;visibility:visible;display:inline;overflow:visible"
     id="path4475"
     sodipodi:cx="24.130018"
     sodipodi:cy="37.967922"
     sodipodi:rx="16.528622"
     sodipodi:ry="3.9332814"
     d="m 40.65864,37.967922 c 0,2.172292 -7.400116,3.933282 -16.528622,3.933282 -9.128505,0 -16.5286214,-1.76099 -16.5286214,-3.933282 0,-2.172291 7.4001164,-3.933281 16.5286214,-3.933281 9.128506,0 16.528622,1.76099 16.528622,3.933281 z"
     transform="matrix(2.066184,0,0,2.1712609,7.1145676,7.4790068)" /><path
     inkscape:connector-curvature="0"
     sodipodi:nodetypes="csscccscccscczzzz"
     id="path2844"
     d="m 49.400293,37.327233 c -11.626507,0 -21.062513,9.436007 -21.062513,21.062514 0,11.626507 9.436006,21.062515 21.062513,21.062515 4.970441,0 9.357911,-1.977565 12.961545,-4.860581 -0.293375,1.438299 -0.111463,2.907463 1.08013,3.942471 l 15.66187,13.609624 c 1.761899,1.530362 4.410349,1.329849 5.940709,-0.432051 1.530361,-1.761901 1.329848,-4.410348 -0.432051,-5.940708 L 68.950626,72.161391 c -0.959257,-0.833197 -2.132532,-1.079879 -3.294393,-0.918109 2.837942,-3.588921 4.806573,-7.926302 4.806573,-12.853535 0,-11.626507 -9.436006,-21.062514 -21.062513,-21.062514 z M 49.292272,39.0788 c 10.912742,0 18.986908,6.840874 18.986908,18.986908 0,12.392143 -8.30897,18.986909 -18.986908,18.986909 -10.432047,0 -18.986906,-7.825293 -18.986906,-18.986909 0,-11.405061 8.320324,-18.986908 18.986906,-18.986908 z"
     style="color:#000000;fill:#dcdcdc;fill-opacity:1;fill-rule:evenodd;stroke:url(#linearGradient3154);stroke-width:4.29371929;stroke-linecap:round;stroke-linejoin:miter;stroke-miterlimit:10;stroke-opacity:1;stroke-dasharray:none;stroke-dashoffset:0;marker:none;visibility:visible;display:inline;overflow:visible" /><path
     inkscape:connector-curvature="0"
     style="color:#000000;fill:#dcdcdc;fill-opacity:1;fill-rule:evenodd;stroke:none;stroke-width:1.00000036;marker:none;visibility:visible;display:inline;overflow:visible"
     d="m 49.365061,37.236954 c -11.66409,0 -21.130599,9.466509 -21.130599,21.130599 0,11.66409 9.466509,21.130598 21.130599,21.130598 4.986509,0 9.388161,-1.983955 13.003446,-4.876291 -0.294324,1.442949 -0.111835,2.916861 1.083619,3.955215 l 15.712498,13.653617 c 1.767594,1.535308 4.424605,1.334148 5.959912,-0.433448 1.535307,-1.767596 1.334146,-4.424605 -0.433448,-5.959912 L 68.978591,72.183714 c -0.962358,-0.83589 -2.139426,-1.083371 -3.305042,-0.921077 2.847116,-3.600522 4.82211,-7.951924 4.82211,-12.895084 0,-11.66409 -9.466508,-21.130599 -21.130598,-21.130599 z m -0.108364,4.551206 c 8.972378,1e-6 16.254306,7.28193 16.254306,16.254307 0,8.972378 -7.281928,16.254306 -16.254306,16.254306 -8.972377,0 -16.254306,-7.281928 -16.254306,-16.254306 0,-8.972377 7.281929,-16.254307 16.254306,-16.254307 z"
     id="path4430" /><path
     inkscape:connector-curvature="0"
     style="color:#000000;fill:url(#linearGradient3156);fill-opacity:1;fill-rule:evenodd;stroke:none;stroke-width:1;marker:none;visibility:visible;display:inline;overflow:visible"
     d="m 79.22595,92.229262 c -0.683769,-3.247181 1.996044,-6.872975 5.119714,-6.840053 0,0 -15.370867,-13.224938 -15.370867,-13.224938 -4.206547,-0.08101 -6.098858,3.246365 -5.395067,6.570853 l 15.64622,13.494138 z"
     id="path4438"
     sodipodi:nodetypes="ccccc" /><path
     sodipodi:type="arc"
     style="color:#000000;fill:none;stroke:url(#linearGradient3158);stroke-width:1.20643401;stroke-linecap:round;stroke-linejoin:miter;stroke-miterlimit:10;stroke-opacity:1;stroke-dasharray:none;stroke-dashoffset:0;marker:none;visibility:visible;display:inline;overflow:visible"
     id="path4450"
     sodipodi:cx="17.500893"
     sodipodi:cy="18.920233"
     sodipodi:rx="11.048544"
     sodipodi:ry="11.048544"
     d="m 28.549437,18.920233 c 0,6.101942 -4.946602,11.048544 -11.048544,11.048544 -6.101943,0 -11.0485443,-4.946602 -11.0485443,-11.048544 0,-6.101943 4.9466013,-11.0485442 11.0485443,-11.0485442 6.101942,0 11.048544,4.9466012 11.048544,11.0485442 z"
     transform="matrix(1.7795071,0,0,1.7795071,17.898354,24.013049)" /><rect
     style="opacity:0.43315507;color:#000000;fill:none;stroke:#ffffff;stroke-width:2.14692569;stroke-linecap:round;stroke-linejoin:miter;stroke-miterlimit:10;stroke-opacity:1;stroke-dasharray:none;stroke-dashoffset:0;marker:none;visibility:visible;display:inline;overflow:visible"
     id="rect4495"
     width="27.210142"
     height="6.3430924"
     x="96.324097"
     y="9.9299822"
     rx="4.5871096"
     ry="4.0531321"
     transform="matrix(0.75298578,0.65803679,-0.648902,0.760872,0,0)" /><path
     sodipodi:type="arc"
     style="color:#000000;fill:url(#radialGradient3160);fill-opacity:1;fill-rule:evenodd;stroke:#3063a3;stroke-width:1.07456946;stroke-linecap:round;stroke-linejoin:miter;stroke-miterlimit:10;stroke-opacity:1;stroke-dashoffset:0;marker:none;visibility:visible"
     id="path4452"
     sodipodi:cx="17.589281"
     sodipodi:cy="18.478292"
     sodipodi:rx="8.3085051"
     sodipodi:ry="8.3085051"
     d="m 25.897786,18.478292 c 0,4.588661 -3.719844,8.308506 -8.308505,8.308506 -4.588661,0 -8.308505,-3.719845 -8.308505,-8.308506 0,-4.58866 3.719844,-8.308505 8.308505,-8.308505 4.588661,0 8.308505,3.719845 8.308505,8.308505 z"
     transform="matrix(1.9978788,0,0,1.9978788,13.900077,20.981941)" /></g></svg>